<?xml version="1.0" encoding="UTF-8"?>
<svg version="1.1" xmlns="http://www.w3.org/2000/svg" width="500" height="500">
<path d="M0 0 C0.99 0.495 0.99 0.495 2 1 C1.51789063 1.90621094 1.03578125 2.81242188 0.5390625 3.74609375 C-4.12446103 12.67295427 -7 19.7646032 -7 30 C-1.72 31.98 3.56 33.96 9 36 C9 37.65 9 39.3 9 41 C4.92320841 42.6852084 2.16924407 41.16939007 -1.75 39.5625 C-2.92046875 39.08941406 -4.0909375 38.61632812 -5.296875 38.12890625 C-6.18890625 37.75636719 -7.0809375 37.38382813 -8 37 C-7.67 37.99 -7.34 38.98 -7 40 C-4.20175068 41.12461286 -1.36715665 41.91300415 1.53125 42.7421875 C2.3459375 43.15726563 3.160625 43.57234375 4 44 C4.84375 46.6328125 4.84375 46.6328125 5 49 C0.70700357 50.26264601 -1.87831311 49.62950412 -6 48 C-5.27731765 51.2985139 -5.27731765 51.2985139 -1.9375 52.6875 C-0.968125 53.120625 0.00125 53.55375 1 54 C1 55.32 1 56.64 1 58 C-0.32 58.33 -1.64 58.66 -3 59 C-2.505 62.465 -2.505 62.465 -2 66 C0.31 65.01 2.62 64.02 5 63 C4.34 62.01 3.68 61.02 3 60 C3.66 58.68 4.32 57.36 5 56 C5.70125 56.144375 6.4025 56.28875 7.125 56.4375 C10.07556141 57.01478375 13.03270151 57.51695141 16 58 C16 57.34 16 56.68 16 56 C13.36 55.01 10.72 54.02 8 53 C8.33 51.35 8.66 49.7 9 48 C12.85492611 46.71502463 14.40346836 47.5947791 18.1875 48.9375 C19.27417969 49.31777344 20.36085938 49.69804687 21.48046875 50.08984375 C22.31191406 50.39019531 23.14335937 50.69054687 24 51 C24 50.34 24 49.68 24 49 C20.04 47.35 16.08 45.7 12 44 C12.33 42.68 12.66 41.36 13 40 C17.0845326 38.27748246 20.36973696 39.92719437 24.25 41.4375 C25.22453125 41.80198242 25.22453125 41.80198242 26.21875 42.17382812 C27.81616817 42.77285994 29.40860594 43.38514321 31 44 C31.66 42.68 32.32 41.36 33 40 C33.96661182 42.58359827 34.08474541 43.75181702 33.1796875 46.40234375 C29.51479394 53.5236489 25.37773198 58.14077563 19 63 C17.96875 63.804375 16.9375 64.60875 15.875 65.4375 C11.3228152 68.67326933 4.69690537 73 -1 73 C-0.84015625 73.57234375 -0.6803125 74.1446875 -0.515625 74.734375 C0.98155534 81.31289466 0.55520747 88.17921914 -3 94 C-10.95139376 103.75133613 -24.3028805 109.23219315 -35.375 114.6875 C-47.84494614 120.83676897 -60.63785225 127.47806219 -66 141 C-66.33 141.99 -66.66 142.98 -67 144 C-67.99 143.67 -68.98 143.34 -70 143 C-75.48334251 131.18972383 -74.67805524 117.19033053 -71.11328125 104.95703125 C-66.54103548 93.01136147 -58.47821527 84.54582163 -47 79 C-38.62073866 75.34961082 -30.34188207 73.89213024 -21.3125 72.75 C-20.02666016 72.57726562 -18.74082031 72.40453125 -17.41601562 72.2265625 C-14.27862608 71.80668881 -11.14021516 71.39808699 -8 71 C-8.19698486 70.35861084 -8.39396973 69.71722168 -8.59692383 69.05639648 C-14.11957514 50.89605274 -17.89205732 31.09504854 -10 13 C-4.06382161 2.0319108 -4.06382161 2.0319108 0 0 Z M-12.0625 76.3125 C-17.85797609 77.7874591 -23.6723737 78.91996521 -29.56665039 79.90942383 C-33.01911512 80.51479574 -35.97135186 81.19980863 -39 83 C-35.31695846 90.17130684 -30.8453047 96.56764761 -26 103 C-16.81137758 98.73542405 -10.15951272 95.02914725 -5 86 C-3.74230357 81.59806251 -3.95526931 79.08946138 -6 75 C-8.03922981 75 -10.10939791 75.79990928 -12.0625 76.3125 Z M-50 88 C-49.05532061 92.57592865 -46.74370604 95.84404858 -44.1875 99.6875 C-43.52911133 100.72100586 -43.52911133 100.72100586 -42.85742188 101.77539062 C-42.42365234 102.43087891 -41.98988281 103.08636719 -41.54296875 103.76171875 C-41.15133545 104.35944092 -40.75970215 104.95716309 -40.35620117 105.57299805 C-38.62759592 107.39184552 -37.48659034 107.78195211 -35 108 C-32.24743206 106.14835964 -32.24743206 106.14835964 -30 104 C-30.5775 103.319375 -31.155 102.63875 -31.75 101.9375 C-33.74427792 99.33385938 -35.33608738 96.71088389 -36.921875 93.84765625 C-38.74041787 90.73109546 -40.82596314 87.87912989 -43 85 C-45.37220987 85 -47.92877733 86.94235438 -50 88 Z M-57.1875 93.75 C-57.785625 94.4925 -58.38375 95.235 -59 96 C-58.6175559 99.01820751 -57.49072326 101.02534036 -55.71484375 103.453125 C-55.04291992 104.38125 -55.04291992 104.38125 -54.35742188 105.328125 C-53.88884766 105.96234375 -53.42027344 106.5965625 -52.9375 107.25 C-52.22883789 108.22453125 -52.22883789 108.22453125 -51.50585938 109.21875 C-50.34276471 110.81653662 -49.17211399 112.40881803 -48 114 C-46.35 113.34 -44.7 112.68 -43 112 C-43 107.44811342 -43.83777657 106.25665237 -46.3125 102.5625 C-49.98426011 97.0279182 -49.98426011 97.0279182 -51.60546875 94.15234375 C-52.06566406 93.44207031 -52.52585938 92.73179687 -53 92 C-55.20660487 91.79176832 -55.20660487 91.79176832 -57.1875 93.75 Z M-63 101 C-65.17664441 104.4266602 -66.7736168 107.73712787 -68.125 111.5625 C-68.62386719 112.95662109 -68.62386719 112.95662109 -69.1328125 114.37890625 C-70.561025 118.6957107 -71.1169712 122.17441913 -71.0625 126.75 C-71.05347656 127.73484375 -71.04445312 128.7196875 -71.03515625 129.734375 C-71.02355469 130.48203125 -71.01195312 131.2296875 -71 132 C-70.01 132 -69.02 132 -68 132 C-67.360625 131.01 -66.72125 130.02 -66.0625 129 C-62.40566673 123.44661035 -56.56001516 120.41404439 -51 117 C-56.19112871 108.34856189 -56.19112871 108.34856189 -63 101 Z " fill="#B95630" transform="translate(256,192)"/>
<path d="M0 0 C5.93011333 0.77857068 11.47664993 2.79065997 17 5 C17.66 3.68 18.32 2.36 19 1 C19.98095234 3.60981763 20.07126834 4.78517687 19.1796875 7.47265625 C14.85455232 16.05817907 14.85455232 16.05817907 10 18 C9.71125 17.38125 9.4225 16.7625 9.125 16.125 C8.06279958 13.86674235 8.06279958 13.86674235 6 12 C7.65 11.67 9.3 11.34 11 11 C6.71 9.02 2.42 7.04 -2 5 C-1 1 -1 1 0 0 Z " fill="#C6552C" transform="translate(270,231)"/>
<path d="M0 0 C3.465 1.485 3.465 1.485 7 3 C7 4.32 7 5.64 7 7 C5.68 7.33 4.36 7.66 3 8 C3.33 10.31 3.66 12.62 4 15 C6.64 14.34 9.28 13.68 12 13 C12 14.32 12 15.64 12 17 C13.98 16.67 15.96 16.34 18 16 C15.65890118 17.56073255 13.43666597 18.86373867 10.9375 20.125 C9.89916016 20.65480469 9.89916016 20.65480469 8.83984375 21.1953125 C7 22 7 22 5 22 C5.16113281 22.56976563 5.32226562 23.13953125 5.48828125 23.7265625 C6.82989415 29.68701063 6.31634674 35.35390482 4 41 C3.06576355 37.98968256 2.95550089 37.13349732 4 34 C4.03954234 31.66700175 4.04401732 29.33291811 4 27 C3.34 27.99 2.68 28.98 2 30 C-1 24.25 -1 24.25 -1 22 C-0.37351563 21.79503906 0.25296875 21.59007812 0.8984375 21.37890625 C1.71570313 21.10949219 2.53296875 20.84007812 3.375 20.5625 C4.18710938 20.29566406 4.99921875 20.02882813 5.8359375 19.75390625 C8.01031799 19.04820271 8.01031799 19.04820271 10 18 C6.37 17.67 2.74 17.34 -1 17 C-1.33 17.66 -1.66 18.32 -2 19 C-2.33 17.68 -2.66 16.36 -3 15 C-1.68 15 -0.36 15 1 15 C0.34 13.02 -0.32 11.04 -1 9 C-0.34 8.67 0.32 8.34 1 8 C0.67 5.36 0.34 2.72 0 0 Z " fill="#B65831" transform="translate(250,243)"/>
<path d="M0 0 C3.96 1.32 7.92 2.64 12 4 C12.66 2.68 13.32 1.36 14 0 C14.98095234 2.60981763 15.07126834 3.78517687 14.1796875 6.47265625 C9.85455232 15.05817907 9.85455232 15.05817907 5 17 C4.71125 16.38125 4.4225 15.7625 4.125 15.125 C3.06279958 12.86674235 3.06279958 12.86674235 1 11 C3.31 11 5.62 11 8 11 C8 10.34 8 9.68 8 9 C8 8.01 8 7.02 8 6 C7.34 5.67 6.68 5.34 6 5 C6 4.34 6 3.68 6 3 C4.35 3 2.7 3 1 3 C0.67 2.01 0.34 1.02 0 0 Z " fill="#B25C3C" transform="translate(275,232)"/>
<path d="M0 0 C0.66 0 1.32 0 2 0 C2.03738281 0.77085937 2.07476562 1.54171875 2.11328125 2.3359375 C2.17902344 3.33882812 2.24476563 4.34171875 2.3125 5.375 C2.37050781 6.37273437 2.42851562 7.37046875 2.48828125 8.3984375 C2.65714844 9.25695312 2.82601562 10.11546875 3 11 C3.99 11.66 4.98 12.32 6 13 C4.25 15.0625 4.25 15.0625 2 17 C0.68 16.67 -0.64 16.34 -2 16 C-2 11.38 -2 6.76 -2 2 C-1.34 2 -0.68 2 0 2 C0 1.34 0 0.68 0 0 Z " fill="#C95929" transform="translate(245,222)"/>
<path d="M0 0 C0.33 0.66 0.66 1.32 1 2 C3.64 1.67 6.28 1.34 9 1 C9 1.99 9 2.98 9 4 C7.55367187 4.30744141 7.55367187 4.30744141 6.078125 4.62109375 C4.81484375 4.89050781 3.5515625 5.15992188 2.25 5.4375 C0.99703125 5.70433594 -0.2559375 5.97117187 -1.546875 6.24609375 C-4.04557085 6.7916235 -6.52553101 7.35638812 -9 8 C-9 8.66 -9 9.32 -9 10 C-11.31 10.33 -13.62 10.66 -16 11 C-15.01 10.34 -14.02 9.68 -13 9 C-12.67 8.01 -12.34 7.02 -12 6 C-10.35 6 -8.7 6 -7 6 C-7 5.34 -7 4.68 -7 4 C-6.030625 3.525625 -5.06125 3.05125 -4.0625 2.5625 C-1.19522563 1.29806053 -1.19522563 1.29806053 0 0 Z " fill="#C95629" transform="translate(220,267)"/>
<path d="M0 0 C0.66 0 1.32 0 2 0 C2 0.99 2 1.98 2 3 C1.195625 3.12375 0.39125 3.2475 -0.4375 3.375 C-1.7059375 3.684375 -1.7059375 3.684375 -3 4 C-3.33 4.66 -3.66 5.32 -4 6 C-4.66 5.67 -5.32 5.34 -6 5 C-6 6.32 -6 7.64 -6 9 C-7.98 9.33 -9.96 9.66 -12 10 C-12.309375 9.05125 -12.61875 8.1025 -12.9375 7.125 C-13.87394742 4.13919592 -13.87394742 4.13919592 -15 2 C-13.00045254 1.95745644 -10.99958364 1.95919217 -9 2 C-8.67 2.33 -8.34 2.66 -8 3 C-3.66770285 2.1395861 -3.66770285 2.1395861 0 0 Z " fill="#C55525" transform="translate(274,250)"/>
<path d="M0 0 C0.66 0.33 1.32 0.66 2 1 C0.8774654 3.27208206 -0.24791521 5.54267645 -1.375 7.8125 C-1.69210938 8.45509766 -2.00921875 9.09769531 -2.3359375 9.75976562 C-3.76458611 12.63194461 -5.21785473 15.3267821 -7 18 C-7 16.68 -7 15.36 -7 14 C-7.66 14 -8.32 14 -9 14 C-9 15.32 -9 16.64 -9 18 C-9.66 18 -10.32 18 -11 18 C-9.68413698 11.27447791 -6.29508891 6.28782172 -2 1 C-1.34 0.67 -0.68 0.34 0 0 Z " fill="#B25E3A" transform="translate(256,192)"/>
<path d="M0 0 C0.66 0 1.32 0 2 0 C2.18451025 10.55808656 2.18451025 10.55808656 1 15 C0.67 15 0.34 15 0 15 C-0.33 12.69 -0.66 10.38 -1 8 C-3.05722588 13.16815281 -3.41513319 17.8922296 -3.625 23.375 C-3.66367188 24.20644531 -3.70234375 25.03789062 -3.7421875 25.89453125 C-3.83574246 27.92935156 -3.91892713 29.96464416 -4 32 C-4.33 32 -4.66 32 -5 32 C-5.08184423 29.02026385 -5.14089764 26.04283168 -5.1875 23.0625 C-5.21263672 22.23169922 -5.23777344 21.40089844 -5.26367188 20.54492188 C-5.33425885 14.49797101 -4.25464398 9.60483651 -2 4 C-1.34 4 -0.68 4 0 4 C0 2.68 0 1.36 0 0 Z " fill="#AE5935" transform="translate(247,206)"/>
<path d="M0 0 C-1 2 -2 4 -3 6 C-2.34 6.33 -1.68 6.66 -1 7 C-7.15228059 10.85320287 -13.28071806 14.24087457 -20 17 C-20 16.34 -20 15.68 -20 15 C-13.25 11 -13.25 11 -11 11 C-11 10.34 -11 9.68 -11 9 C-9.68 9 -8.36 9 -7 9 C-7.103125 8.2575 -7.20625 7.515 -7.3125 6.75 C-7 4 -7 4 -4.625 1.6875 C-2 0 -2 0 0 0 Z " fill="#B05737" transform="translate(226,297)"/>
<path d="M0 0 C0.66 0 1.32 0 2 0 C2.8125 2.1875 2.8125 2.1875 3 5 C0.75 7.5625 0.75 7.5625 -2 10 C-3.02813611 11.31175986 -4.04084432 12.6369893 -5 14 C-5.66 13.34 -6.32 12.68 -7 12 C-6.34 12 -5.68 12 -5 12 C-5 11.34 -5 10.68 -5 10 C-5.99 10 -6.98 10 -8 10 C-6.66529737 5.99589212 -4.44000697 5.29333798 -1 3 C-0.67 2.01 -0.34 1.02 0 0 Z " fill="#C5552C" transform="translate(193,318)"/>
<path d="M0 0 C-2.36092311 2.73370045 -4.56538728 3.91097645 -8 5 C-9.32 5 -10.64 5 -12 5 C-12.33 5.99 -12.66 6.98 -13 8 C-13.66 7.01 -14.32 6.02 -15 5 C-12.59379043 0.30789133 -12.59379043 0.30789133 -10.3125 -0.875 C-6.79176186 -1.06531017 -3.48569472 -0.52285421 0 0 Z " fill="#CB582A" transform="translate(261,260)"/>
<path d="M0 0 C3.465 1.485 3.465 1.485 7 3 C7 4.32 7 5.64 7 7 C5.68 7.33 4.36 7.66 3 8 C3.33 10.31 3.66 12.62 4 15 C3.34 15 2.68 15 2 15 C1.93941406 14.25234375 1.87882813 13.5046875 1.81640625 12.734375 C1.73261719 11.74953125 1.64882812 10.7646875 1.5625 9.75 C1.48128906 8.77546875 1.40007812 7.8009375 1.31640625 6.796875 C1.04925416 4.43538247 0.64628032 2.28098935 0 0 Z " fill="#B05F3F" transform="translate(250,243)"/>
<path d="M0 0 C2.31 0 4.62 0 7 0 C7 0.66 7 1.32 7 2 C2.61538462 5 2.61538462 5 0 5 C0 5.99 0 6.98 0 8 C-1.32 8 -2.64 8 -4 8 C-4 6.68 -4 5.36 -4 4 C-2.68 3.67 -1.36 3.34 0 3 C0 2.01 0 1.02 0 0 Z " fill="#C7582B" transform="translate(206,307)"/>
<path d="M0 0 C0.99 0.33 1.98 0.66 3 1 C2.34 1 1.68 1 1 1 C1 1.99 1 2.98 1 4 C4.63 5.32 8.26 6.64 12 8 C12 8.66 12 9.32 12 10 C10.41531323 9.54636829 8.83230076 9.08688548 7.25 8.625 C6.36828125 8.36976563 5.4865625 8.11453125 4.578125 7.8515625 C2.23919428 7.0790066 0.16557438 6.16374324 -2 5 C-1.125 1.125 -1.125 1.125 0 0 Z " fill="#AC5934" transform="translate(270,231)"/>
<path d="M0 0 C2.31 0 4.62 0 7 0 C6.375 1.875 6.375 1.875 5 4 C3.00827818 4.69100553 1.00838196 5.35902703 -1 6 C-1.33 6.99 -1.66 7.98 -2 9 C-2.66 8.67 -3.32 8.34 -4 8 C-2.66666667 5.33333333 -1.33333333 2.66666667 0 0 Z " fill="#C75527" transform="translate(227,295)"/>
<path d="M0 0 C-3 2 -3 2 -6 2 C-6 2.66 -6 3.32 -6 4 C-7.65 4 -9.3 4 -11 4 C-11 4.66 -11 5.32 -11 6 C-12.98 6.33 -14.96 6.66 -17 7 C-14.43471574 3.96098728 -11.57680059 2.75347776 -7.9375 1.25 C-6.87402344 0.80140625 -5.81054688 0.3528125 -4.71484375 -0.109375 C-2 -1 -2 -1 0 0 Z " fill="#A95B3D" transform="translate(219,269)"/>
<path d="M0 0 C1.65 0.33 3.3 0.66 5 1 C5 2.32 5 3.64 5 5 C5.66 5.33 6.32 5.66 7 6 C7 6.66 7 7.32 7 8 C4.03 7.01 1.06 6.02 -2 5 C-0.68 4.01 0.64 3.02 2 2 C1.34 1.34 0.68 0.68 0 0 Z " fill="#B45836" transform="translate(254,225)"/>
<path d="M0 0 C0.66 0.33 1.32 0.66 2 1 C1.67 2.65 1.34 4.3 1 6 C-0.65 6.33 -2.3 6.66 -4 7 C-4 5.35 -4 3.7 -4 2 C-2.125 0.9375 -2.125 0.9375 0 0 Z " fill="#CE4C21" transform="translate(218,300)"/>
<path d="M0 0 C0.33 0.66 0.66 1.32 1 2 C0.01 2 -0.98 2 -2 2 C-2 2.99 -2 3.98 -2 5 C-3.98 4.34 -5.96 3.68 -8 3 C-8 2.34 -8 1.68 -8 1 C-5.29120665 -0.35439668 -2.99066732 -0.06501451 0 0 Z " fill="#C15029" transform="translate(242,291)"/>
<path d="M0 0 C0.99 0.66 1.98 1.32 3 2 C1.54634731 3.17249353 0.08692581 4.33783816 -1.375 5.5 C-2.18710937 6.1496875 -2.99921875 6.799375 -3.8359375 7.46875 C-6 9 -6 9 -8 9 C-8 7.68 -8 6.36 -8 5 C-5.09399739 3.74335022 -3.20395416 3 0 3 C0 2.01 0 1.02 0 0 Z " fill="#B45A37" transform="translate(276,250)"/>
<path d="M0 0 C1.65 0.33 3.3 0.66 5 1 C5.33 2.32 5.66 3.64 6 5 C3.37886292 5 1.49064888 4.68707555 -1 4 C-0.67 2.68 -0.34 1.36 0 0 Z " fill="#B95C31" transform="translate(261,248)"/>
<path d="M0 0 C2.475 0.495 2.475 0.495 5 1 C5 2.65 5 4.3 5 6 C3.68 5.67 2.36 5.34 1 5 C0.67 3.35 0.34 1.7 0 0 Z " fill="#CB5328" transform="translate(275,245)"/>
<path d="M0 0 C0.66 0.33 1.32 0.66 2 1 C0.68 3.31 -0.64 5.62 -2 8 C-2.99 7.67 -3.98 7.34 -5 7 C-3.70700306 4.11562221 -2.34058637 2.12780579 0 0 Z " fill="#AF6A52" transform="translate(256,192)"/>
<path d="M0 0 C2.4375 0.8125 2.4375 0.8125 5 2 C5.33 2.99 5.66 3.98 6 5 C4.125 5.625 4.125 5.625 2 6 C1.34 5.34 0.68 4.68 0 4 C0 2.68 0 1.36 0 0 Z " fill="#C0512C" transform="translate(212,296)"/>
<path d="M0 0 C2.475 0.99 2.475 0.99 5 2 C5.33 1.34 5.66 0.68 6 0 C6 2.31 6 4.62 6 7 C4.35 5.68 2.7 4.36 1 3 C0.01 3.495 0.01 3.495 -1 4 C-0.67 2.68 -0.34 1.36 0 0 Z " fill="#AE5534" transform="translate(192,291)"/>
<path d="M0 0 C0.99 1.32 1.98 2.64 3 4 C2.34 4.66 1.68 5.32 1 6 C0.67 6.66 0.34 7.32 0 8 C-0.99 6.02 -1.98 4.04 -3 2 C-2.01 1.34 -1.02 0.68 0 0 Z " fill="#B5563A" transform="translate(217,276)"/>
<path d="M0 0 C0.99 0.33 1.98 0.66 3 1 C3.33 2.65 3.66 4.3 4 6 C2.35 6 0.7 6 -1 6 C-0.67 4.02 -0.34 2.04 0 0 Z " fill="#CD5324" transform="translate(247,252)"/>
<path d="M0 0 C0.33 0.66 0.66 1.32 1 2 C3.52733235 2.65555119 3.52733235 2.65555119 6 3 C5.67 3.99 5.34 4.98 5 6 C3.02 5.34 1.04 4.68 -1 4 C-0.67 2.68 -0.34 1.36 0 0 Z " fill="#C64D27" transform="translate(232,265)"/>
<path d="M0 0 C0.93065133 2.60582371 1.14917407 3.64198224 0.0625 6.25 C-0.4634375 7.11625 -0.4634375 7.11625 -1 8 C-1.66 6.68 -2.32 5.36 -3 4 C-2.01 2.68 -1.02 1.36 0 0 Z " fill="#AB5B49" transform="translate(289,232)"/>
</svg>
