<svg xmlns="http://www.w3.org/2000/svg" width="500" height="500" viewBox="0 0 500 500" version="1.1"><path d="M 296.684 106.906 C 288.052 116.135, 282.970 125.854, 278.857 141 C 276.867 148.327, 276.556 151.777, 276.603 166 C 276.662 183.955, 278.714 196.737, 284.842 217.319 L 287.766 227.139 285.133 228.141 C 281.093 229.680, 270.260 231.696, 250.525 234.582 C 236.100 236.691, 230.564 237.978, 222.496 241.094 C 202.276 248.904, 188.087 260.917, 179.946 277.120 C 168.245 300.407, 166.181 325.311, 174.015 348.670 C 175.643 353.526, 176.988 357.725, 177.003 358 C 177.078 359.370, 178.971 355.248, 178.985 353.686 C 179.006 351.115, 183.596 341.396, 186.727 337.291 C 189.752 333.326, 200.694 324.224, 209.500 318.348 C 216.525 313.661, 233.035 304.608, 255.624 293.058 C 273.134 284.106, 287.044 274.430, 291.361 268.201 C 297.536 259.289, 298.994 251.726, 297.759 235 L 297.500 231.500 311.598 224.500 C 326.714 216.995, 331.560 213.788, 339.659 205.928 C 346.934 198.867, 352.351 191.566, 356.569 183.136 C 360.211 175.855, 360.787 172.166, 357.382 177.931 C 356.385 179.619, 355.282 181, 354.931 181 C 354.581 181, 351.415 179.933, 347.897 178.630 C 328.791 171.550, 309.980 164.584, 298 160.153 L 284.500 155.160 284.835 149.830 C 285.774 134.887, 291.461 117.457, 298.948 106.575 C 300.680 104.059, 301.911 102, 301.685 102 C 301.459 102, 299.208 104.208, 296.684 106.906 M 285.190 168.493 L 285.500 173.246 295.500 177.066 C 301 179.167, 314.031 184.060, 324.458 187.938 L 343.416 194.989 346.717 191.789 C 349.122 189.459, 349.667 188.393, 348.723 187.865 C 348.011 187.466, 334.169 182.196, 317.964 176.154 C 301.759 170.111, 287.685 164.846, 286.690 164.454 C 285.074 163.816, 284.913 164.250, 285.190 168.493 M 287.510 187.250 C 287.887 189.588, 288.715 192.030, 289.348 192.678 C 290.570 193.928, 325.216 207, 327.306 207 C 329.345 207, 336.259 201.854, 335.348 201.015 C 334.478 200.214, 288.777 183, 287.522 183 C 287.138 183, 287.133 184.912, 287.510 187.250 M 293.490 210.366 C 296.257 219.335, 296.622 219.996, 298.809 220.013 C 301.010 220.029, 317 213.839, 317 212.970 C 317 212.454, 304.594 207.570, 292.336 203.261 C 291.605 203.004, 292.035 205.652, 293.490 210.366 M 281.500 235.590 C 278.750 236.367, 269.075 238.337, 260 239.968 C 234.767 244.503, 219.245 250.633, 204.103 262.043 C 183.529 277.546, 171.469 302.403, 172.214 327.766 C 172.477 336.716, 172.666 337.524, 174.555 337.794 C 176.052 338.008, 177.864 336.475, 181.217 332.156 C 190.613 320.057, 210.427 307.320, 254.500 285.046 C 277.190 273.579, 284.258 268.119, 289.507 258 C 291.833 253.516, 292.718 241.148, 291.009 237.021 C 289.618 233.665, 288.773 233.537, 281.500 235.590" stroke="none" fill="#c56035" fill-rule="evenodd"/><path d="M 243 64.649 C 171.186 74.082, 114.397 123.207, 95.626 192.135 C 88.073 219.867, 88.050 252.610, 95.563 280.977 C 108.589 330.157, 145.309 373.517, 190.885 393.538 C 212.675 403.109, 232.320 407.777, 254.607 408.679 C 304.297 410.691, 350.221 392.868, 384.643 358.212 C 451.995 290.404, 451.676 181.554, 383.927 114.116 C 364.253 94.532, 342.209 81.017, 316.254 72.626 C 296.984 66.397, 287.707 64.901, 266 64.526 C 255.275 64.341, 244.925 64.396, 243 64.649 M 296.684 106.906 C 288.052 116.135, 282.970 125.854, 278.857 141 C 276.867 148.327, 276.556 151.777, 276.603 166 C 276.662 183.955, 278.714 196.737, 284.842 217.319 L 287.766 227.139 285.133 228.141 C 281.093 229.680, 270.260 231.696, 250.525 234.582 C 236.100 236.691, 230.564 237.978, 222.496 241.094 C 202.276 248.904, 188.087 260.917, 179.946 277.120 C 168.245 300.407, 166.181 325.311, 174.015 348.670 C 175.643 353.526, 176.988 357.725, 177.003 358 C 177.078 359.370, 178.971 355.248, 178.985 353.686 C 179.006 351.115, 183.596 341.396, 186.727 337.291 C 189.752 333.326, 200.694 324.224, 209.500 318.348 C 216.525 313.661, 233.035 304.608, 255.624 293.058 C 273.134 284.106, 287.044 274.430, 291.361 268.201 C 297.536 259.289, 298.994 251.726, 297.759 235 L 297.500 231.500 311.598 224.500 C 326.714 216.995, 331.560 213.788, 339.659 205.928 C 346.934 198.867, 352.351 191.566, 356.569 183.136 C 360.211 175.855, 360.787 172.166, 357.382 177.931 C 356.385 179.619, 355.282 181, 354.931 181 C 354.581 181, 351.415 179.933, 347.897 178.630 C 328.791 171.550, 309.980 164.584, 298 160.153 L 284.500 155.160 284.835 149.830 C 285.774 134.887, 291.461 117.457, 298.948 106.575 C 300.680 104.059, 301.911 102, 301.685 102 C 301.459 102, 299.208 104.208, 296.684 106.906 M 285.190 168.493 L 285.500 173.246 295.500 177.066 C 301 179.167, 314.031 184.060, 324.458 187.938 L 343.416 194.989 346.717 191.789 C 349.122 189.459, 349.667 188.393, 348.723 187.865 C 348.011 187.466, 334.169 182.196, 317.964 176.154 C 301.759 170.111, 287.685 164.846, 286.690 164.454 C 285.074 163.816, 284.913 164.250, 285.190 168.493 M 287.510 187.250 C 287.887 189.588, 288.715 192.030, 289.348 192.678 C 290.570 193.928, 325.216 207, 327.306 207 C 329.345 207, 336.259 201.854, 335.348 201.015 C 334.478 200.214, 288.777 183, 287.522 183 C 287.138 183, 287.133 184.912, 287.510 187.250 M 293.490 210.366 C 296.257 219.335, 296.622 219.996, 298.809 220.013 C 301.010 220.029, 317 213.839, 317 212.970 C 317 212.454, 304.594 207.570, 292.336 203.261 C 291.605 203.004, 292.035 205.652, 293.490 210.366 M 281.500 235.590 C 278.750 236.367, 269.075 238.337, 260 239.968 C 234.767 244.503, 219.245 250.633, 204.103 262.043 C 183.529 277.546, 171.469 302.403, 172.214 327.766 C 172.477 336.716, 172.666 337.524, 174.555 337.794 C 176.052 338.008, 177.864 336.475, 181.217 332.156 C 190.613 320.057, 210.427 307.320, 254.500 285.046 C 277.190 273.579, 284.258 268.119, 289.507 258 C 291.833 253.516, 292.718 241.148, 291.009 237.021 C 289.618 233.665, 288.773 233.537, 281.500 235.590" stroke="none" fill="#fbfbfb" fill-rule="evenodd"/></svg>