<?xml version="1.0" standalone="no"?>
<!DOCTYPE svg PUBLIC "-//W3C//DTD SVG 20010904//EN"
 "http://www.w3.org/TR/2001/REC-SVG-20010904/DTD/svg10.dtd">
<svg version="1.0" xmlns="http://www.w3.org/2000/svg"
 width="500.000000pt" height="500.000000pt" viewBox="0 0 500.000000 500.000000"
 preserveAspectRatio="xMidYMid meet">

<g transform="translate(0.000000,500.000000) scale(0.100000,-0.100000)"
fill="#000000" stroke="none">
<path d="M2943 3898 c-39 -43 -90 -133 -117 -208 -42 -119 -56 -203 -56 -352
0 -151 18 -270 72 -463 47 -169 48 -152 -13 -169 -58 -17 -266 -52 -390 -66
-185 -21 -384 -118 -521 -252 -178 -176 -264 -527 -194 -798 28 -111 54 -178
55 -143 1 12 17 56 36 97 38 80 112 163 194 218 25 17 55 39 66 49 26 22 247
144 460 253 328 168 430 271 443 448 2 37 -1 88 -7 114 -16 63 -24 56 161 142
194 90 316 200 413 371 35 63 45 90 22 59 -14 -18 1 -22 -202 51 -105 38 -331
123 -360 136 -16 7 -60 23 -97 36 -79 28 -78 23 -53 177 17 104 42 183 85 266
15 31 27 56 26 56 -1 0 -12 -10 -23 -22z m114 -608 c103 -39 229 -86 278 -104
50 -19 107 -40 128 -47 44 -15 46 -24 10 -61 -30 -32 -48 -34 -95 -14 -18 8
-58 24 -88 35 -30 11 -118 43 -195 72 -77 29 -161 60 -188 69 -26 10 -49 19
-51 21 -2 2 -7 25 -10 52 -6 38 -4 47 8 47 8 0 100 -32 203 -70z m38 -194 c99
-37 199 -74 223 -83 23 -9 45 -19 47 -23 2 -4 -16 -22 -41 -40 l-46 -32 -156
57 c-250 92 -238 86 -250 141 -12 57 -9 66 21 55 12 -5 103 -39 202 -75z m14
-190 c36 -13 66 -27 68 -33 2 -6 -11 -16 -29 -23 -18 -7 -51 -21 -73 -30 -59
-26 -90 -31 -107 -17 -14 11 -58 138 -58 166 0 5 30 -1 68 -16 37 -14 96 -35
131 -47z m-203 -257 c16 -17 19 -36 18 -103 0 -99 -26 -157 -101 -227 -72 -67
-128 -103 -280 -176 -76 -37 -149 -74 -163 -84 -14 -9 -68 -39 -120 -66 -231
-121 -403 -250 -473 -356 -26 -39 -59 -33 -69 13 -23 100 29 364 93 476 63
109 184 235 288 302 122 78 291 142 441 167 152 25 244 44 290 59 58 19 54 19
76 -5z"/>
</g>
</svg>
