<svg xmlns="http://www.w3.org/2000/svg" width="512" height="512" viewBox="0 0 512 512" version="1.1"><path d="M 301.304 112.250 C 288.698 127.866, 283 145.842, 283 169.999 C 283 184.627, 285.885 202.643, 290.962 219.718 C 292.633 225.338, 294 230.571, 294 231.347 C 294 233.899, 284.512 236.268, 261.500 239.463 C 239.241 242.553, 229.423 245.205, 217.075 251.462 C 209.970 255.062, 196.751 265.323, 192.211 270.762 C 186.557 277.535, 180.187 290.824, 176.757 303 C 174.166 312.200, 173.785 315.234, 173.685 327.500 C 173.568 341.800, 174.774 348.696, 179.676 361.750 C 181.360 366.236, 183 367.351, 183 364.011 C 183 362.916, 184.215 358.985, 185.701 355.275 C 187.848 349.912, 189.949 346.973, 195.951 340.942 C 206.919 329.919, 220.984 321.068, 256 303.151 C 278.282 291.750, 284.651 287.824, 292.897 280.406 C 302.818 271.481, 307.901 256.094, 304.968 243.868 C 303.742 238.757, 303.773 238.593, 306.315 236.570 C 307.746 235.431, 312.873 232.754, 317.708 230.619 C 338.764 221.324, 354.629 207.357, 363.904 189.951 C 367.910 182.431, 369.619 176.803, 366.242 182.250 C 365.304 183.762, 363.979 185, 363.298 185 C 362.617 185, 356.759 183.047, 350.280 180.660 C 343.801 178.273, 328.375 172.601, 316 168.056 C 303.625 163.511, 292.898 159.221, 292.162 158.523 C 291.071 157.487, 291.038 155.802, 291.985 149.377 C 294.502 132.281, 298.194 121.574, 305.634 109.787 C 309.332 103.930, 306.907 105.309, 301.304 112.250 M 292.190 172.597 L 292.500 177.455 321 188.205 C 336.675 194.118, 350.203 198.965, 351.063 198.978 C 352.587 198.999, 358.776 193.338, 357.927 192.699 C 357.283 192.214, 349.707 189.301, 338 185.037 C 332.225 182.934, 326.375 180.734, 325 180.148 C 323.625 179.563, 316.425 176.851, 309 174.123 C 301.575 171.394, 294.685 168.842, 293.690 168.451 C 292.071 167.815, 291.913 168.254, 292.190 172.597 M 294.466 191.732 C 295.273 197.240, 295.769 197.913, 300.218 199.526 C 302.023 200.180, 310.417 203.255, 318.870 206.358 C 327.324 209.461, 334.725 212, 335.316 212 C 337.189 212, 344.111 206.710, 343.288 205.909 C 342.597 205.236, 326.767 199.140, 301.634 189.867 L 293.768 186.965 294.466 191.732 M 299.073 209.667 C 299.113 210.675, 300.126 214.425, 301.323 218 C 303.095 223.289, 303.939 224.562, 305.855 224.833 C 308.283 225.177, 325 219.170, 325 217.954 C 325 217.579, 319.496 215.299, 312.769 212.886 C 306.043 210.474, 300.193 208.350, 299.769 208.167 C 299.346 207.983, 299.033 208.658, 299.073 209.667 M 287 241.570 C 284.525 242.361, 275.975 244.138, 268 245.520 C 242.465 249.947, 228.952 254.794, 213.691 265.001 C 189.562 281.139, 176 306.659, 176 335.923 C 176 343.580, 176.270 345.074, 177.804 345.895 C 180.090 347.119, 180.838 346.579, 185.013 340.692 C 193.310 328.992, 213.776 315.725, 258.500 293.053 C 283.637 280.310, 291.112 274.601, 296.544 264 C 298.691 259.810, 299.661 246.719, 298.118 242.750 C 296.875 239.552, 294.208 239.269, 287 241.570" stroke="none" fill="#c66339" fill-rule="evenodd"/><path d="M 247 66.090 C 218.975 69.698, 192.935 79.777, 167.585 96.830 C 151.961 107.341, 141.581 117.480, 126.241 137.215 C 91.691 181.664, 82.249 247.626, 102.449 303.430 C 113.319 333.458, 134.908 362.899, 160.146 382.111 C 178.875 396.368, 195.278 404.780, 217.347 411.446 C 233.481 416.318, 243.803 418.011, 261.607 418.703 C 291.455 419.864, 317.102 414.684, 346.240 401.610 C 365.843 392.814, 394.266 369.789, 407.812 351.732 C 432.036 319.443, 443.787 287.852, 445.654 250 C 447.659 209.344, 435.368 169.883, 409.989 135.500 C 382.847 98.728, 338.215 72.590, 292.076 66.447 C 280.648 64.926, 257.473 64.742, 247 66.090 M 301.304 112.250 C 288.698 127.866, 283 145.842, 283 169.999 C 283 184.627, 285.885 202.643, 290.962 219.718 C 292.633 225.338, 294 230.571, 294 231.347 C 294 233.899, 284.512 236.268, 261.500 239.463 C 239.241 242.553, 229.423 245.205, 217.075 251.462 C 209.970 255.062, 196.751 265.323, 192.211 270.762 C 186.557 277.535, 180.187 290.824, 176.757 303 C 174.166 312.200, 173.785 315.234, 173.685 327.500 C 173.568 341.800, 174.774 348.696, 179.676 361.750 C 181.360 366.236, 183 367.351, 183 364.011 C 183 362.916, 184.215 358.985, 185.701 355.275 C 187.848 349.912, 189.949 346.973, 195.951 340.942 C 206.919 329.919, 220.984 321.068, 256 303.151 C 278.282 291.750, 284.651 287.824, 292.897 280.406 C 302.818 271.481, 307.901 256.094, 304.968 243.868 C 303.742 238.757, 303.773 238.593, 306.315 236.570 C 307.746 235.431, 312.873 232.754, 317.708 230.619 C 338.764 221.324, 354.629 207.357, 363.904 189.951 C 367.910 182.431, 369.619 176.803, 366.242 182.250 C 365.304 183.762, 363.979 185, 363.298 185 C 362.617 185, 356.759 183.047, 350.280 180.660 C 343.801 178.273, 328.375 172.601, 316 168.056 C 303.625 163.511, 292.898 159.221, 292.162 158.523 C 291.071 157.487, 291.038 155.802, 291.985 149.377 C 294.502 132.281, 298.194 121.574, 305.634 109.787 C 309.332 103.930, 306.907 105.309, 301.304 112.250 M 292.190 172.597 L 292.500 177.455 321 188.205 C 336.675 194.118, 350.203 198.965, 351.063 198.978 C 352.587 198.999, 358.776 193.338, 357.927 192.699 C 357.283 192.214, 349.707 189.301, 338 185.037 C 332.225 182.934, 326.375 180.734, 325 180.148 C 323.625 179.563, 316.425 176.851, 309 174.123 C 301.575 171.394, 294.685 168.842, 293.690 168.451 C 292.071 167.815, 291.913 168.254, 292.190 172.597 M 294.466 191.732 C 295.273 197.240, 295.769 197.913, 300.218 199.526 C 302.023 200.180, 310.417 203.255, 318.870 206.358 C 327.324 209.461, 334.725 212, 335.316 212 C 337.189 212, 344.111 206.710, 343.288 205.909 C 342.597 205.236, 326.767 199.140, 301.634 189.867 L 293.768 186.965 294.466 191.732 M 299.073 209.667 C 299.113 210.675, 300.126 214.425, 301.323 218 C 303.095 223.289, 303.939 224.562, 305.855 224.833 C 308.283 225.177, 325 219.170, 325 217.954 C 325 217.579, 319.496 215.299, 312.769 212.886 C 306.043 210.474, 300.193 208.350, 299.769 208.167 C 299.346 207.983, 299.033 208.658, 299.073 209.667 M 287 241.570 C 284.525 242.361, 275.975 244.138, 268 245.520 C 242.465 249.947, 228.952 254.794, 213.691 265.001 C 189.562 281.139, 176 306.659, 176 335.923 C 176 343.580, 176.270 345.074, 177.804 345.895 C 180.090 347.119, 180.838 346.579, 185.013 340.692 C 193.310 328.992, 213.776 315.725, 258.500 293.053 C 283.637 280.310, 291.112 274.601, 296.544 264 C 298.691 259.810, 299.661 246.719, 298.118 242.750 C 296.875 239.552, 294.208 239.269, 287 241.570" stroke="none" fill="#fbfbfa" fill-rule="evenodd"/></svg>