<?xml version="1.0" encoding="UTF-8"?>
<svg version="1.1" xmlns="http://www.w3.org/2000/svg" width="500" height="500">
<path d="M0 0 C0 4.25160807 -2.43073152 6.46822507 -4.9375 9.6875 C-22.85952297 33.51498594 -31.18399736 60.49746071 -34 90 C-34.11085938 91.13050781 -34.22171875 92.26101562 -34.3359375 93.42578125 C-34.57325015 95.9496333 -34.79199209 98.47363298 -35 101 C-33.75992188 101.2371875 -32.51984375 101.474375 -31.2421875 101.71875 C-25.2968844 103.04456418 -19.7740659 105.25435266 -14.125 107.5 C-11.78702335 108.4142067 -9.4484642 109.32692489 -7.109375 110.23828125 C-5.92150391 110.70186035 -4.73363281 111.16543945 -3.50976562 111.64306641 C1.84780621 113.71439252 7.23423608 115.70449109 12.625 117.6875 C24.20512962 121.95363601 35.76062019 126.2830801 47.3125 130.625 C59.19735459 135.09187382 71.08644671 139.53994839 83.03637695 143.83056641 C88.81773515 145.90886758 88.81773515 145.90886758 91 147 C91.3403125 145.7934375 91.3403125 145.7934375 91.6875 144.5625 C93.98996345 138.31295634 97.52697954 132.66650706 101 127 C103.54073887 133.45571385 98.72119896 141.98927268 96.11865234 148.05371094 C90.26975795 160.98153805 82.82234401 172.33779657 73.11328125 182.734375 C71.19206082 184.79409376 69.37431189 186.90699546 67.5625 189.0625 C50.16219616 208.93715897 24.38385379 223.77657538 -0.33984375 232.5859375 C-3.57993438 233.83771211 -5.82029039 235.03416192 -8.5 237.1875 C-9.1703125 237.71730469 -9.840625 238.24710938 -10.53125 238.79296875 C-11.25828125 239.39044922 -11.25828125 239.39044922 -12 240 C-11.7834375 241.8253125 -11.7834375 241.8253125 -11.5625 243.6875 C-11.44068359 244.71423828 -11.44068359 244.71423828 -11.31640625 245.76171875 C-11.03135184 248.01279026 -11.03135184 248.01279026 -10.48046875 250.2421875 C-7.11649327 269.55085978 -12.30920028 288.89365082 -23 305 C-27.14348139 310.75483527 -32.44756476 314.69137529 -38 319 C-39.62558663 320.33261806 -41.25059218 321.66594527 -42.875 323 C-58.80808794 335.71654906 -77.13215585 344.12435197 -95.29663086 353.1003418 C-107.95391094 359.35993817 -120.43863066 365.84766977 -132.75999451 372.74656677 C-135.8351644 374.46733046 -138.91779644 376.17456661 -142.00015259 377.88241577 C-143.88067854 378.93331902 -145.7481677 380.00407853 -147.61328125 381.08203125 C-150.48844638 382.71029663 -153.39327551 384.23928436 -156.33764648 385.73730469 C-163.55341167 389.4437529 -169.9602424 393.65934983 -176.33691406 398.70361328 C-178.22244927 400.17340071 -180.13516341 401.60224253 -182.0546875 403.02734375 C-182.75988525 403.55102539 -183.46508301 404.07470703 -184.19165039 404.61425781 C-185.56267714 405.63128284 -186.93422378 406.64760757 -188.30639648 407.66308594 C-196.90303748 414.06220319 -196.90303748 414.06220319 -204 422 C-204.66 422 -205.32 422 -206 422 C-206.25265625 422.56074219 -206.5053125 423.12148438 -206.765625 423.69921875 C-208.17660866 426.32918512 -209.89615829 428.47364156 -211.75 430.8125 C-219.73413467 441.72366771 -222.87364213 453.85015526 -225 467 C-225.66 467 -226.32 467 -227 467 C-236.28565503 448.28799821 -242.25169172 426.89027283 -243 406 C-243.03029297 405.30471191 -243.06058594 404.60942383 -243.09179688 403.89306641 C-243.28229364 398.9157577 -243.20526723 393.97554666 -243 389 C-242.96229492 387.86183838 -242.96229492 387.86183838 -242.92382812 386.70068359 C-242.03855745 364.71796745 -236.0760772 341.57163967 -226 322 C-225.65324219 321.30132812 -225.30648437 320.60265625 -224.94921875 319.8828125 C-218.00602935 305.89829675 -210.13068372 294.55397499 -198.5625 283.9375 C-197.20318359 282.68259766 -197.20318359 282.68259766 -195.81640625 281.40234375 C-193.0008705 279.00074252 -190.10549094 277.00675249 -187 275 C-185.5399848 273.93981229 -184.08161527 272.87735413 -182.625 271.8125 C-172.35270609 264.63575493 -161.46777434 258.75047678 -149.71484375 254.3984375 C-147.32375001 253.49832019 -144.95711048 252.52870578 -142.62890625 251.4765625 C-129.89092709 245.97955945 -116.2600812 244.57407254 -102.63330078 242.65625 C-94.37251081 241.4918577 -86.12301823 240.25124304 -77.875 239 C-77.04420929 238.87452789 -76.21341858 238.74905579 -75.35745239 238.61978149 C-63.0972678 236.75846515 -50.98977325 234.56123011 -38.96826172 231.47729492 C-36.65754962 230.91695727 -34.33366575 230.45414743 -32 230 C-32.22139648 229.16976318 -32.44279297 228.33952637 -32.67089844 227.48413086 C-34.04882812 222.31689453 -35.42675781 217.1496582 -36.8046875 211.98242188 C-36.97833832 211.33146042 -37.15198914 210.68049896 -37.3309021 210.0098114 C-37.68603743 208.67758735 -38.04070552 207.34523867 -38.39492798 206.01277161 C-39.26867912 202.7283002 -40.15132986 199.44694468 -41.04833984 196.16870117 C-54.67449793 146.10738123 -60.66145429 86.03056504 -33.80322266 38.89990234 C-28.80724734 30.53864696 -23.45079216 22.80927371 -16.6796875 15.78515625 C-14.92731459 14.09397678 -14.92731459 14.09397678 -14 12 C-13.34 12 -12.68 12 -12 12 C-11.77570313 11.42765625 -11.55140625 10.8553125 -11.3203125 10.265625 C-9.6219841 7.35133367 -7.54119931 5.80092255 -4.875 3.75 C-3.96492187 3.04359375 -3.05484375 2.3371875 -2.1171875 1.609375 C-1.06917969 0.81273438 -1.06917969 0.81273438 0 0 Z M-35 118 C-34.67 122.95 -34.34 127.9 -34 133 C-25.33507007 136.68325768 -16.60203554 140.04575806 -7.75 143.25 C-5.09188831 144.21721703 -2.4345805 145.18663222 0.22265625 146.15625 C0.88252029 146.39680115 1.54238434 146.63735229 2.22224426 146.88519287 C8.39119805 149.13663516 14.541736 151.43603436 20.6875 153.75 C28.5500712 156.7092072 36.41996935 159.64601098 44.30957031 162.5324707 C48.08142408 163.91447727 51.84277445 165.31762125 55.58984375 166.765625 C56.6890918 167.18775269 56.6890918 167.18775269 57.81054688 167.6184082 C59.1851283 168.1477609 60.55769201 168.68239672 61.92773438 169.22338867 C65.2308727 170.49171357 67.39141311 171 71 171 C72.97427424 169.36771324 72.97427424 169.36771324 74.6875 167.1875 C75.59048828 166.12595703 75.59048828 166.12595703 76.51171875 165.04296875 C78.17711702 162.97365214 78.17711702 162.97365214 79 160 C72.91194535 157.67524401 66.82230507 155.35468772 60.73095703 153.03857422 C59.07284696 152.40800026 57.41491853 151.77694804 55.75732422 151.14501953 C47.79700798 148.11279419 39.80076581 145.22133975 31.75 142.4375 C26.43161049 140.59803083 21.17133187 138.72776302 16 136.5 C10.17411552 133.99389327 4.22237011 131.94489889 -1.77075195 129.88256836 C-10.03673764 127.02355712 -18.21745237 123.95030061 -26.39355469 120.84472656 C-27.85970215 120.28930176 -27.85970215 120.28930176 -29.35546875 119.72265625 C-30.22840576 119.39015869 -31.10134277 119.05766113 -32.00073242 118.71508789 C-33.80304646 117.94386989 -33.80304646 117.94386989 -35 118 Z M-31 152 C-30.4136191 161.51354883 -30.4136191 161.51354883 -26.4296875 169.70703125 C-23.99593522 170.75211311 -21.56904591 171.34775518 -19 172 C-16.9669712 172.75891191 -14.96193691 173.57566147 -12.95214844 174.39404297 C-4.96869649 177.63183364 3.14008856 180.52276901 11.30126953 183.27758789 C15.82391072 184.82005487 20.23186704 186.49362105 24.6171875 188.39453125 C25.54813232 188.78648682 26.47907715 189.17844238 27.43823242 189.58227539 C29.22513331 190.34124413 30.99999636 191.12944267 32.7590332 191.95092773 C36.34886972 193.45204183 38.69475442 194.42893048 42.48657227 193.18286133 C47.0995685 190.68077817 51.10355067 187.4968135 55 184 C51.54874484 181.69916322 48.00012213 180.4463853 44.125 179.0625 C35.82577608 176.05202098 27.56328933 172.95320956 19.3125 169.8125 C16.84252579 168.87479406 14.37248519 167.93726512 11.90234375 167 C7.80674991 165.44585644 3.71163493 163.89047652 -0.38232422 162.33203125 C-4.07791065 160.9256945 -7.77546515 159.52463953 -11.47427368 158.12680054 C-12.90185367 157.58629515 -14.32876214 157.04401265 -15.75497437 156.49990845 C-17.74379796 155.74143573 -19.73486033 154.98915631 -21.7265625 154.23828125 C-22.86689941 153.80555908 -24.00723633 153.37283691 -25.18212891 152.92700195 C-27.98055371 151.84375146 -27.98055371 151.84375146 -31 152 Z M-23 188 C-21.85510641 191.93777387 -20.70892441 195.87517156 -19.5625 199.8125 C-19.23701172 200.93205078 -18.91152344 202.05160156 -18.57617188 203.20507812 C-18.26357422 204.27822266 -17.95097656 205.35136719 -17.62890625 206.45703125 C-17.34088135 207.44678955 -17.05285645 208.43654785 -16.75610352 209.45629883 C-15.56492398 214.00332102 -15.56492398 214.00332102 -12 217 C-5.85822972 216.73364772 -0.62408753 214.46697078 5 212.125 C6.29550781 211.59712891 6.29550781 211.59712891 7.6171875 211.05859375 C12.43341505 209.08964966 17.22368471 207.0636797 22 205 C19.83554523 202.83554523 18.5080404 202.31027184 15.66015625 201.30078125 C14.77038086 200.98173828 13.88060547 200.66269531 12.96386719 200.33398438 C12.00641602 199.99689453 11.04896484 199.65980469 10.0625 199.3125 C8.06881788 198.60079955 6.07533205 197.88854901 4.08203125 197.17578125 C3.07092285 196.81564941 2.05981445 196.45551758 1.01806641 196.08447266 C-1.86649895 195.04797053 -4.74146217 193.9892231 -7.61328125 192.91796875 C-8.48025635 192.59465576 -9.34723145 192.27134277 -10.24047852 191.93823242 C-11.8888682 191.32195053 -13.53651778 190.70368473 -15.18334961 190.08325195 C-18.98748784 188.55219891 -18.98748784 188.55219891 -23 188 Z M-43.0625 245.6875 C-50.81964723 247.72060195 -58.55489164 249.64305437 -66.4375 251.125 C-67.70871704 251.36464478 -67.70871704 251.36464478 -69.00561523 251.60913086 C-73.63138862 252.45494449 -78.26165229 253.19446675 -82.91796875 253.8515625 C-129.74060943 260.54157248 -177.08569889 281.03304539 -206.89453125 319.14453125 C-225.83885279 344.83710834 -236.1479897 375.25376609 -236.24023438 407.20117188 C-236.25004533 409.25951 -236.28119796 411.31689065 -236.3125 413.375 C-236.31765625 414.67953125 -236.3228125 415.9840625 -236.328125 417.328125 C-236.3374707 418.5130957 -236.34681641 419.69806641 -236.35644531 420.91894531 C-235.97237081 424.23882214 -235.25122053 425.59126834 -233 428 C-230.67083638 428.02752151 -230.67083638 428.02752151 -228 427 C-226.08815926 424.72787317 -224.4851878 422.59198498 -222.875 420.125 C-222.02070488 418.85510185 -221.16400649 417.58681649 -220.3046875 416.3203125 C-219.7475708 415.47364014 -219.7475708 415.47364014 -219.17919922 414.60986328 C-218 413 -218 413 -216.35595703 411.41748047 C-214.76958303 410.08606155 -214.76958303 410.08606155 -215 408 C-214.42378906 407.74476563 -213.84757812 407.48953125 -213.25390625 407.2265625 C-210.76480234 405.87200682 -209.00257191 404.31269364 -206.9375 402.375 C-201.91171568 397.81883815 -196.5467922 393.89335351 -191 390 C-190.26346191 389.47639893 -189.52692383 388.95279785 -188.76806641 388.41333008 C-183.03734537 384.36007025 -177.22000453 380.50364737 -171.25 376.8125 C-170.35676025 376.26005615 -169.46352051 375.7076123 -168.54321289 375.13842773 C-155.74647922 367.30712523 -142.55572648 360.1639345 -129.06640625 353.6015625 C-125.84593981 351.91953544 -122.74736542 350.09019243 -119.62841797 348.22900391 C-111.67278064 343.49090005 -103.64748501 339.33210369 -95.1875 335.5625 C-86.99907906 331.90749502 -79.00258856 328.03747664 -71.125 323.75 C-70.25254639 323.27892822 -69.38009277 322.80785645 -68.48120117 322.32250977 C-62.35507135 318.93889498 -56.68018098 315.07944253 -51 311 C-50.29496338 310.51885742 -49.58992676 310.03771484 -48.86352539 309.54199219 C-36.21613017 300.90809191 -26.83560003 288.03751016 -23.36401367 273.06640625 C-22.75019882 269.58194692 -22.66162552 266.15646191 -22.6875 262.625 C-22.68878906 261.88838135 -22.69007813 261.1517627 -22.69140625 260.39282227 C-22.79353515 254.57594329 -23.76897333 249.40492771 -26 244 C-32.09474956 242.23654454 -37.15039777 244.0601089 -43.0625 245.6875 Z " fill="#CC5F31" transform="translate(325,27)"/>
<path d="M0 0 C5 0 5 0 7.8125 2.5 C8.534375 3.325 9.25625 4.15 10 5 C7.36 4.34 4.72 3.68 2 3 C2.33 7.62 2.66 12.24 3 17 C4.23492187 17.42410156 5.46984375 17.84820312 6.7421875 18.28515625 C15.1755794 21.19898298 23.57474735 24.16135755 31.875 27.4375 C41.28141065 31.14959237 50.78187871 34.58363579 60.29248047 38.01806641 C64.53492944 39.55667144 68.76747663 41.12184015 73 42.6875 C78.5700651 44.74787488 84.15040237 46.77123923 89.75 48.75 C93.25619882 49.99228956 96.7185887 51.25520348 100.125 52.75 C102.44418625 53.75834185 104.53076882 54.50615376 107 55 C107.226875 54.443125 107.45375 53.88625 107.6875 53.3125 C109.35702054 50.37096381 111.58675821 48.3513638 114 46 C114.495 45.01 114.495 45.01 115 44 C113.515 43.505 113.515 43.505 112 43 C113.65 43.33 115.3 43.66 117 44 C117.625 46.3125 117.625 46.3125 118 49 C117.34 49.99 116.68 50.98 116 52 C116.66 52 117.32 52 118 52 C118.99 49.69 119.98 47.38 121 45 C121.66 45 122.32 45 123 45 C123 44.34 123 43.68 123 43 C122.34 43 121.68 43 121 43 C121 42.34 121 41.68 121 41 C122.65 41 124.3 41 126 41 C126 39.68 126 38.36 126 37 C126.66 37 127.32 37 128 37 C128 35.68 128 34.36 128 33 C127.01 33 126.02 33 125 33 C124.505 33.99 124.505 33.99 124 35 C123.67 34.01 123.34 33.02 123 32 C122.01 32 121.02 32 120 32 C119.505 30.515 119.505 30.515 119 29 C124.75 29.875 124.75 29.875 127 31 C127.3403125 29.7934375 127.3403125 29.7934375 127.6875 28.5625 C129.98996345 22.31295634 133.52697954 16.66650706 137 11 C139.54073887 17.45571385 134.72119896 25.98927268 132.11865234 32.05371094 C126.26975795 44.98153805 118.82234401 56.33779657 109.11328125 66.734375 C107.19206082 68.79409376 105.37431189 70.90699546 103.5625 73.0625 C99.44739544 77.80845785 94.73345555 81.88560806 90 86 C89.34 85.67 88.68 85.34 88 85 C88 83.68 88 82.36 88 81 C84.01905646 78.88512375 81.50098369 79.17471607 77.13671875 79.90625 C73.34956061 80.07241416 70.41846545 78.52610065 67 77 C67 76.34 67 75.68 67 75 C65.68 75.33 64.36 75.66 63 76 C62.67 75.01 62.34 74.02 62 73 C63.37589617 73.28740942 64.75067322 73.58017742 66.125 73.875 C66.95257813 74.04773438 67.78015625 74.22046875 68.6328125 74.3984375 C71 75 71 75 74 76.5 C77.73571899 77.12261983 78.52937735 76.35440093 81.625 74.3125 C83.09883044 73.22910534 84.5576829 72.12500734 86 71 C87.3321255 69.99839157 88.66528467 68.99815468 90 68 C79.64648674 63.79983151 69.23228077 59.80394059 58.75 55.9375 C57.24886608 55.38212263 55.74780978 54.82653543 54.24682617 54.27075195 C51.11520193 53.11134777 47.98324564 51.95284697 44.85107422 50.79492188 C37.45360953 48.05910707 30.06094441 45.31036297 22.66784668 42.56277466 C18.92066869 41.17027904 15.17321563 39.77852418 11.42578125 38.38671875 C9.30527344 37.59910156 7.18476563 36.81148437 5 36 C6.32 41.28 7.64 46.56 9 52 C8.01 52.495 8.01 52.495 7 53 C4.96006486 48.07015675 3.59347032 44.42039575 4 39 C3.34 39 2.68 39 2 39 C1.505 37.515 1.505 37.515 1 36 C0.34 35.67 -0.32 35.34 -1 35 C-1 31.04 -1 27.08 -1 23 C2.96 22.505 2.96 22.505 7 22 C3.55291141 19.90493748 3.55291141 19.90493748 0 18 C0 12.06 0 6.12 0 0 Z " fill="#CB5F30" transform="translate(289,143)"/>
<path d="M0 0 C0.33 0 0.66 0 1 0 C1 2.31 1 4.62 1 7 C1.54785156 7.07476562 2.09570312 7.14953125 2.66015625 7.2265625 C10.93423201 8.59884824 18.32450317 11.74558934 26 15 C26 15.66 26 16.32 26 17 C26.66 17 27.32 17 28 17 C28 17.99 28 18.98 28 20 C28.33 19.34 28.66 18.68 29 18 C29.66 18 30.32 18 31 18 C31 18.66 31 19.32 31 20 C31.515625 20.103125 32.03125 20.20625 32.5625 20.3125 C35.86026435 21.24263866 38.86633332 22.61395512 42 24 C41.67 24.66 41.34 25.32 41 26 C41.99 26.33 42.98 26.66 44 27 C43.608125 27.556875 43.21625 28.11375 42.8125 28.6875 C42.544375 29.450625 42.27625 30.21375 42 31 C43.28184562 33.74832154 43.28184562 33.74832154 45 36 C30.41463415 34.41463415 30.41463415 34.41463415 27 31 C24.8816867 30.62652327 22.75483405 30.30090371 20.625 30 C11.69630958 28.73295746 11.69630958 28.73295746 8.625 25.5 C5.9028844 22.90750895 4.66070817 22.31377499 1 22 C1 23.65 1 25.3 1 27 C0.67 27 0.34 27 0 27 C-0.33 25.02 -0.66 23.04 -1 21 C-1.99 21.33 -2.98 21.66 -4 22 C-4.18451025 11.44191344 -4.18451025 11.44191344 -3 7 C-2.34 7 -1.68 7 -1 7 C-1.020625 6.030625 -1.04125 5.06125 -1.0625 4.0625 C-1 1 -1 1 0 0 Z " fill="#C95D2E" transform="translate(288,121)"/>
<path d="M0 0 C0.99 0.33 1.98 0.66 3 1 C3.36923077 7.52307692 3.36923077 7.52307692 1.5 9.9375 C1.005 10.288125 0.51 10.63875 0 11 C0.33 11.515625 0.66 12.03125 1 12.5625 C2.83064186 17.02468954 2.369139 20.94873036 0.79296875 25.4375 C-0.00173828 27.2009375 -0.00173828 27.2009375 -0.8125 29 C-4.06406729 36.52486457 -5.69300956 43.91729596 -7 52 C-7.66 52 -8.32 52 -9 52 C-12.86997142 43.83463477 -15.90524927 35.61057173 -18.4375 26.9375 C-18.84379639 25.58168823 -18.84379639 25.58168823 -19.25830078 24.19848633 C-19.50177246 23.33763428 -19.74524414 22.47678223 -19.99609375 21.58984375 C-20.21450928 20.82534912 -20.4329248 20.06085449 -20.65795898 19.27319336 C-21.05814665 16.61355929 -20.65872276 14.59059514 -20 12 C-19.443125 12.33 -18.88625 12.66 -18.3125 13 C-15.51860608 14.20817034 -14.01376343 14.51454498 -11 14 C-6.25254942 10.22638544 -3.21405546 5.06959264 0 0 Z " fill="#CB5E2F" transform="translate(107,442)"/>
<path d="M0 0 C2.73136757 2.73136757 2.32739072 4.50215012 2.5 8.3125 C2.7017254 13.02808426 2.7017254 13.02808426 4.01953125 17.5078125 C7.59899554 26.60621178 5.74053751 43.02270998 2 52 C0.68 52 -0.64 52 -2 52 C-2.99 48.535 -2.99 48.535 -4 45 C-5.98 45.495 -5.98 45.495 -8 46 C-8.04254356 44.00045254 -8.04080783 41.99958364 -8 40 C-7.505 39.505 -7.505 39.505 -7 39 C-6.61928025 35.51385093 -6.53026796 32.00266247 -6.375 28.5 C-6.29765625 27.01693359 -6.29765625 27.01693359 -6.21875 25.50390625 C-6.17492187 24.56417969 -6.13109375 23.62445313 -6.0859375 22.65625 C-6.0451709 21.78806641 -6.0044043 20.91988281 -5.96240234 20.02539062 C-5.76563893 18.00307404 -5.76563893 18.00307404 -7 17 C-7.07179964 15.48071962 -7.08392007 13.95832518 -7.0625 12.4375 C-7.05347656 11.61121094 -7.04445313 10.78492188 -7.03515625 9.93359375 C-7.02355469 9.29550781 -7.01195312 8.65742188 -7 8 C-5.68 7.67 -4.36 7.34 -3 7 C-2.814375 5.5459375 -2.814375 5.5459375 -2.625 4.0625 C-2.41875 3.051875 -2.2125 2.04125 -2 1 C-1.34 0.67 -0.68 0.34 0 0 Z " fill="#C95929" transform="translate(309,263)"/>
<path d="M0 0 C0 4.25160807 -2.43073152 6.46822507 -4.9375 9.6875 C-19.68825547 29.29875812 -27.19905326 50.07275527 -32 74 C-32.33 74 -32.66 74 -33 74 C-32.98839844 73.40832031 -32.97679687 72.81664063 -32.96484375 72.20703125 C-32.91633238 67.95882148 -33.11578549 64.16843985 -34 60 C-33.67 59.34 -33.34 58.68 -33 58 C-32.34 58 -31.68 58 -31 58 C-30.855625 56.865625 -30.71125 55.73125 -30.5625 54.5625 C-30 51 -30 51 -29 50 C-28.95907063 47.66702567 -28.95758277 45.33294775 -29 43 C-30.32 42.67 -31.64 42.34 -33 42 C-33.17015625 42.84304687 -33.3403125 43.68609375 -33.515625 44.5546875 C-33.75796875 45.65039062 -34.0003125 46.74609375 -34.25 47.875 C-34.48203125 48.96554688 -34.7140625 50.05609375 -34.953125 51.1796875 C-36 54 -36 54 -38.109375 55.3828125 C-38.73328125 55.58648437 -39.3571875 55.79015625 -40 56 C-39.9175 56.9075 -39.835 57.815 -39.75 58.75 C-40.05464439 62.71037702 -41.14911051 63.4184859 -44 66 C-39.57091307 46.96269651 -30.24334993 29.85564592 -16.6796875 15.78515625 C-14.92731459 14.09397678 -14.92731459 14.09397678 -14 12 C-13.34 12 -12.68 12 -12 12 C-11.66355469 11.14148438 -11.66355469 11.14148438 -11.3203125 10.265625 C-9.6219841 7.35133367 -7.54119931 5.80092255 -4.875 3.75 C-3.96492188 3.04359375 -3.05484375 2.3371875 -2.1171875 1.609375 C-1.41851562 1.07828125 -0.71984375 0.5471875 0 0 Z " fill="#CA5828" transform="translate(325,27)"/>
<path d="M0 0 C2 1.5 2 1.5 3 3 C0.25 8.875 0.25 8.875 -2 10 C-4.37123246 10.23029956 -6.74741943 10.41119942 -9.125 10.5625 C-10.40632813 10.64628906 -11.68765625 10.73007812 -13.0078125 10.81640625 C-13.99523437 10.87699219 -14.98265625 10.93757813 -16 11 C-16 11.66 -16 12.32 -16 13 C-17.16917969 13.20496094 -18.33835938 13.40992188 -19.54296875 13.62109375 C-21.09115122 13.89319855 -22.639328 14.16533567 -24.1875 14.4375 C-24.95642578 14.57220703 -25.72535156 14.70691406 -26.51757812 14.84570312 C-30.35465574 15.52089704 -34.18399568 16.21232777 -38 17 C-38.66 15.02 -39.32 13.04 -40 11 C-39.34 10.34 -38.68 9.68 -38 9 C-38.66 8.67 -39.32 8.34 -40 8 C-40 7.34 -40 6.68 -40 6 C-34.42041284 2.28027523 -28.50405795 1.69366449 -21.9375 1.4375 C-14.55258707 1.10912639 -7.38773201 -0.48444144 0 0 Z " fill="#CA5828" transform="translate(248,269)"/>
<path d="M0 0 C0.33 0 0.66 0 1 0 C0.85816304 1.75032844 0.71136571 3.50025534 0.5625 5.25 C0.48128906 6.22453125 0.40007812 7.1990625 0.31640625 8.203125 C0.04925416 10.56461753 -0.35371968 12.71901065 -1 15 C-0.01 14.67 0.98 14.34 2 14 C2.99 14 3.98 14 5 14 C5.66 12.68 6.32 11.36 7 10 C7.33 10 7.66 10 8 10 C8.33 9.01 8.66 8.02 9 7 C9 7.66 9 8.32 9 9 C9.99 8.67 10.98 8.34 12 8 C10.68651399 11.66797954 8.93241504 14.8829808 6.92749023 18.21679688 C1.43895644 27.40266558 -1.97952465 36.76591883 -5 47 C-5.33 47 -5.66 47 -6 47 C-6.25729264 39.92445235 -6.01984912 33.02977369 -2 27 C-3.65 27.33 -5.3 27.66 -7 28 C-7 30.64 -7 33.28 -7 36 C-7.66 36 -8.32 36 -9 36 C-9.33 36.99 -9.66 37.98 -10 39 C-10.99 39 -11.98 39 -13 39 C-13 41.31 -13 43.62 -13 46 C-13.66 46 -14.32 46 -15 46 C-14.37798403 39.81558836 -13.13528098 34.03804502 -11.4375 28.0625 C-11.18081543 27.15604736 -10.92413086 26.24959473 -10.65966797 25.31567383 C-8.02156216 16.41537408 -4.25032224 8.23095398 0 0 Z " fill="#CE663B" transform="translate(101,345)"/>
<path d="M0 0 C2.475 0.99 2.475 0.99 5 2 C5 2.66 5 3.32 5 4 C6.155 3.7525 7.31 3.505 8.5 3.25 C13.51960406 2.5777316 16.81096617 4.40413595 21 7 C20.67 7.66 20.34 8.32 20 9 C20.99 9.33 21.98 9.66 23 10 C22.608125 10.556875 22.21625 11.11375 21.8125 11.6875 C21.544375 12.450625 21.27625 13.21375 21 14 C22.28184562 16.74832154 22.28184562 16.74832154 24 19 C9.41463415 17.41463415 9.41463415 17.41463415 6 14 C3.9412232 13.72046781 1.88271568 13.55265649 -0.1875 13.37890625 C-0.785625 13.25386719 -1.38375 13.12882813 -2 13 C-2.33 12.34 -2.66 11.68 -3 11 C-5.52733235 10.34444881 -5.52733235 10.34444881 -8 10 C-8.33 9.01 -8.66 8.02 -9 7 C-7.02579865 4.47740939 -6.03254358 4.0070192 -2.8125 3.3125 C-1.4203125 3.1578125 -1.4203125 3.1578125 0 3 C0 2.01 0 1.02 0 0 Z " fill="#C95827" transform="translate(309,138)"/>
<path d="M0 0 C2.475 0.495 2.475 0.495 5 1 C4.835 1.763125 4.67 2.52625 4.5 3.3125 C3.90854604 6.03596236 3.90854604 6.03596236 4 9 C4 9.99 4 10.98 4 12 C3.01 12 2.02 12 1 12 C0.67 12.66 0.34 13.32 0 14 C-0.99 13.67 -1.98 13.34 -3 13 C-3 13.99 -3 14.98 -3 16 C-3.99 16 -4.98 16 -6 16 C-6 17.32 -6 18.64 -6 20 C-8.875 20.125 -8.875 20.125 -12 20 C-12.66 19.34 -13.32 18.68 -14 18 C-13.625 15.875 -13.625 15.875 -13 14 C-14.98 14.33 -16.96 14.66 -19 15 C-18.34 13.68 -17.68 12.36 -17 11 C-16.01 11 -15.02 11 -14 11 C-14 10.01 -14 9.02 -14 8 C-12.68 8 -11.36 8 -10 8 C-10 7.34 -10 6.68 -10 6 C-6.66666667 4.66666667 -3.33333333 3.33333333 0 2 C0 1.34 0 0.68 0 0 Z " fill="#CB5827" transform="translate(160,401)"/>
<path d="M0 0 C0 0.66 0 1.32 0 2 C0.99 2 1.98 2 3 2 C3.33 2.66 3.66 3.32 4 4 C5.32 3.67 6.64 3.34 8 3 C8 4.32 8 5.64 8 7 C7.34 7 6.68 7 6 7 C6 8.32 6 9.64 6 11 C4.35 11 2.7 11 1 11 C1 11.66 1 12.32 1 13 C1.66 13 2.32 13 3 13 C3 13.66 3 14.32 3 15 C2.34 15 1.68 15 1 15 C0.87625 15.5775 0.7525 16.155 0.625 16.75 C-0.00648824 19.02335767 -0.88858191 20.9253529 -2 23 C-2.66 22.67 -3.32 22.34 -4 22 C-3.67 19.69 -3.34 17.38 -3 15 C-3.55429687 14.75765625 -4.10859375 14.5153125 -4.6796875 14.265625 C-5.40414063 13.93046875 -6.12859375 13.5953125 -6.875 13.25 C-7.59429687 12.92515625 -8.31359375 12.6003125 -9.0546875 12.265625 C-11.3370674 10.78070314 -12.00375898 9.49584592 -13 7 C-12.01 7 -11.02 7 -10 7 C-9.67 7.33 -9.34 7.66 -9 8 C-9.061875 7.236875 -9.12375 6.47375 -9.1875 5.6875 C-9 3 -9 3 -7.6875 1.25 C-4.77156235 -0.90995382 -3.45696967 -1.15232322 0 0 Z " fill="#C95928" transform="translate(409,173)"/>
<path d="M0 0 C0.33 0 0.66 0 1 0 C1.06058594 0.98742187 1.12117188 1.97484375 1.18359375 2.9921875 C1.26738281 4.27351563 1.35117188 5.55484375 1.4375 6.875 C1.51871094 8.15117187 1.59992188 9.42734375 1.68359375 10.7421875 C1.79206027 13.88300152 1.79206027 13.88300152 3 16 C3.07181821 18.71760108 3.09299506 21.40859388 3.0625 24.125 C3.05798828 24.87910156 3.05347656 25.63320313 3.04882812 26.41015625 C3.03703499 28.27347127 3.01909942 30.13674555 3 32 C3.66 32 4.32 32 5 32 C5 21.44 5 10.88 5 0 C5.66 0 6.32 0 7 0 C7.01981934 1.04454346 7.03963867 2.08908691 7.06005859 3.1652832 C7.13612114 7.0400405 7.22483728 10.91442257 7.31738281 14.78881836 C7.35566993 16.46582634 7.39052331 18.14291638 7.421875 19.82006836 C7.46753179 22.23060432 7.5255241 24.64057557 7.5859375 27.05078125 C7.59748871 27.80087967 7.60903992 28.55097809 7.62094116 29.32380676 C7.72695459 33.06127713 7.87619082 34.81428623 10 38 C13.24519666 37.69593558 14.61900552 37.43719323 16.80078125 34.93359375 C17.29964844 34.10988281 17.79851562 33.28617187 18.3125 32.4375 C18.82425781 31.61121094 19.33601563 30.78492188 19.86328125 29.93359375 C20.23839844 29.29550781 20.61351563 28.65742188 21 28 C21.640625 29.7734375 21.640625 29.7734375 22 32 C21.109375 33.8515625 21.109375 33.8515625 19.75 35.625 C19.31171875 36.21539062 18.8734375 36.80578125 18.421875 37.4140625 C16.31897498 39.75960483 14.6551361 40.93448639 11.5 41.25 C9 41 9 41 6 39 C5.01 39 4.02 39 3 39 C-0.26895822 26.14209765 -0.14200958 13.17533336 0 0 Z " fill="#C67754" transform="translate(82,416)"/>
<path d="M0 0 C-0.59834507 2.43574101 -1.24191929 4.83865355 -1.9375 7.25 C-3.65704902 14.02476454 -4.20932939 21.06901512 -5 28 C-7.64 28.66 -10.28 29.32 -13 30 C-13.84098656 25.98195309 -14.05404945 22.98196457 -13 19 C-12.34 19 -11.68 19 -11 19 C-11 16.69 -11 14.38 -11 12 C-10.01 11.67 -9.02 11.34 -8 11 C-7.67 10.34 -7.34 9.68 -7 9 C-6.34 9 -5.68 9 -5 9 C-5 6.36 -5 3.72 -5 1 C-2 0 -2 0 0 0 Z " fill="#C96339" transform="translate(99,372)"/>
<path d="M0 0 C0.268125 0.639375 0.53625 1.27875 0.8125 1.9375 C1.88667752 4.33131686 1.88667752 4.33131686 5 5 C4.91291331 6.45945288 4.80473093 7.91765868 4.6875 9.375 C4.62949219 10.18710937 4.57148437 10.99921875 4.51171875 11.8359375 C4 14 4 14 1 16 C0.67 16.66 0.34 17.32 0 18 C-0.33 18 -0.66 18 -1 18 C-1.33 18.99 -1.66 19.98 -2 21 C-2.65129797 22.34090759 -3.31513275 23.67592331 -4 25 C-4 23.68 -4 22.36 -4 21 C-5.65 21 -7.3 21 -9 21 C-8.77268296 18.50918562 -8.53102249 16.02184407 -8.26171875 13.53515625 C-8.08032423 11.7780661 -7.95520939 10.01460654 -7.875 8.25 C-6.41216305 4.48841927 -3.15058579 2.39378711 0 0 Z " fill="#CA5827" transform="translate(109,339)"/>
<path d="M0 0 C0 4.25038419 -2.42924247 6.47003668 -4.9375 9.6875 C-10.77748205 17.37720697 -15.47041382 25.48885164 -20 34 C-20.33 34 -20.66 34 -21 34 C-20.125 27.25 -20.125 27.25 -19 25 C-19.7425 25.78375 -20.485 26.5675 -21.25 27.375 C-23.54433318 29.56504531 -25.12158858 30.82731386 -28 32 C-26.6251276 28.03129615 -24.79752511 25.22720013 -22.125 22 C-21.44695312 21.175 -20.76890625 20.35 -20.0703125 19.5 C-19.04550781 18.2625 -19.04550781 18.2625 -18 17 C-17.29617188 16.071875 -16.59234375 15.14375 -15.8671875 14.1875 C-15.25101562 13.465625 -14.63484375 12.74375 -14 12 C-13.34 12 -12.68 12 -12 12 C-11.66355469 11.14148438 -11.66355469 11.14148438 -11.3203125 10.265625 C-9.6219841 7.35133367 -7.54119931 5.80092255 -4.875 3.75 C-3.96492188 3.04359375 -3.05484375 2.3371875 -2.1171875 1.609375 C-1.41851562 1.07828125 -0.71984375 0.5471875 0 0 Z " fill="#C65A31" transform="translate(325,27)"/>
<path d="M0 0 C0.33 0 0.66 0 1 0 C1.33 1.65 1.66 3.3 2 5 C3.32 4.67 4.64 4.34 6 4 C6.33 6.64 6.66 9.28 7 12 C7.99 12 8.98 12 10 12 C9.41712333 15.69373527 8.40083644 18.49881745 6.5625 21.75 C6.13066406 22.52859375 5.69882812 23.3071875 5.25390625 24.109375 C4 26 4 26 2 27 C2.33 24.69 2.66 22.38 3 20 C3.66 20 4.32 20 5 20 C4.34 18.35 3.68 16.7 3 15 C2.01 15.33 1.02 15.66 0 16 C-0.33 15.67 -0.66 15.34 -1 15 C-3.01224124 15.02266343 -3.01224124 15.02266343 -5 16 C-6.29660434 18.49034386 -6.29660434 18.49034386 -7 21 C-7.66 21 -8.32 21 -9 21 C-9 21.66 -9 22.32 -9 23 C-9.99 23 -10.98 23 -12 23 C-10.6187244 20.06643373 -9.00394678 17.51331387 -7.125 14.875 C-3.94113596 10.1850434 -1.88976014 5.32467711 0 0 Z " fill="#CD6E46" transform="translate(300,303)"/>
<path d="M0 0 C2.54102897 6.45645096 -2.28198331 15.04700061 -4.91357422 21.10205078 C-8.82020735 29.62651951 -13.26691562 37.54699031 -19 45 C-19.66 43.68 -20.32 42.36 -21 41 C-20.34 41 -19.68 41 -19 41 C-18.01 38.69 -17.02 36.38 -16 34 C-15.34 34 -14.68 34 -14 34 C-14 33.34 -14 32.68 -14 32 C-14.66 32 -15.32 32 -16 32 C-16 31.34 -16 30.68 -16 30 C-14.35 30 -12.7 30 -11 30 C-11 28.68 -11 27.36 -11 26 C-10.34 26 -9.68 26 -9 26 C-9 24.68 -9 23.36 -9 22 C-9.99 22 -10.98 22 -12 22 C-12.33 22.66 -12.66 23.32 -13 24 C-13.33 23.01 -13.66 22.02 -14 21 C-14.99 21 -15.98 21 -17 21 C-17.33 20.01 -17.66 19.02 -18 18 C-12.25 18.875 -12.25 18.875 -10 20 C-9.773125 19.195625 -9.54625 18.39125 -9.3125 17.5625 C-7.01003655 11.31295634 -3.47302046 5.66650706 0 0 Z " fill="#D58F6E" transform="translate(426,154)"/>
<path d="M0 0 C0 2.62113708 -0.31292445 4.50935112 -1 7 C-0.34 7.33 0.32 7.66 1 8 C1.33 8.99 1.66 9.98 2 11 C2.66 11.33 3.32 11.66 4 12 C4 12.66 4 13.32 4 14 C4.66 14.33 5.32 14.66 6 15 C4.52312468 16.16956591 3.04343707 17.33558146 1.5625 18.5 C0.73878906 19.1496875 -0.08492188 19.799375 -0.93359375 20.46875 C-3 22 -3 22 -4 22 C-4 20.02 -4 18.04 -4 16 C-4.99 16 -5.98 16 -7 16 C-7 14.68 -7 13.36 -7 12 C-7.86625 12.433125 -7.86625 12.433125 -8.75 12.875 C-9.4925 13.24625 -10.235 13.6175 -11 14 C-11.66 14.391875 -12.32 14.78375 -13 15.1875 C-15.45418319 16.18451192 -16.51774052 15.72916372 -19 15 C-17.948125 14.38125 -17.948125 14.38125 -16.875 13.75 C-10.39870167 9.80790536 -5.0919016 5.61714074 0 0 Z M-7 9 C-6 11 -6 11 -6 11 Z " fill="#D07149" transform="translate(287,326)"/>
<path d="M0 0 C2.97 0.33 5.94 0.66 9 1 C9 1.66 9 2.32 9 3 C10.32 3.66 11.64 4.32 13 5 C13 7.83967231 12.59732819 10.23735711 12 13 C10.741875 13.04125 9.48375 13.0825 8.1875 13.125 C7.47980469 13.14820313 6.77210938 13.17140625 6.04296875 13.1953125 C4 13 4 13 1 11 C-0.28317892 7.15046324 -0.06643637 4.05261865 0 0 Z " fill="#C95826" transform="translate(294,197)"/>
<path d="M0 0 C0.66 0.33 1.32 0.66 2 1 C1.21625 1.721875 0.4325 2.44375 -0.375 3.1875 C-3.79553179 6.85235549 -4.68746201 9.91530933 -6.0625 14.6875 C-8.19921228 20.51087129 -12.73214042 24.64709249 -17 29 C-17.5465625 29.59167969 -18.093125 30.18335938 -18.65625 30.79296875 C-20 32 -20 32 -22 32 C-20.07703915 25.54908206 -16.72260431 20.54756868 -13 15 C-12.53980469 14.31035156 -12.07960938 13.62070312 -11.60546875 12.91015625 C-9.05857965 9.21514572 -6.25352022 6.08228231 -3 3 C-2.401875 2.401875 -1.80375 1.80375 -1.1875 1.1875 C-0.795625 0.795625 -0.40375 0.40375 0 0 Z " fill="#CA582A" transform="translate(124,313)"/>
<path d="M0 0 C0.33 0 0.66 0 1 0 C0.85915204 1.79206547 0.71216299 3.58364917 0.5625 5.375 C0.48128906 6.37273437 0.40007812 7.37046875 0.31640625 8.3984375 C0 11 0 11 -1 13 C-1.99 13 -2.98 13 -4 13 C-4.144375 13.721875 -4.28875 14.44375 -4.4375 15.1875 C-4.95833333 17.79166667 -5.47916667 20.39583333 -6 23 C-6.66 23 -7.32 23 -8 23 C-7.67 27.29 -7.34 31.58 -7 36 C-7.66 36 -8.32 36 -9 36 C-9.33 36.99 -9.66 37.98 -10 39 C-10.99 39 -11.98 39 -13 39 C-13 41.31 -13 43.62 -13 46 C-13.66 46 -14.32 46 -15 46 C-14.37798403 39.81558836 -13.13528098 34.03804502 -11.4375 28.0625 C-11.18081543 27.15604736 -10.92413086 26.24959473 -10.65966797 25.31567383 C-8.02156216 16.41537408 -4.25032224 8.23095398 0 0 Z " fill="#CF805B" transform="translate(101,345)"/>
<path d="M0 0 C3.3 0 6.6 0 10 0 C7.02137049 1.98575301 5.37742538 2.50006317 1.94140625 3.18359375 C0.9246582 3.38766846 -0.09208984 3.59174316 -1.13964844 3.80200195 C-2.22793945 4.01171631 -3.31623047 4.22143066 -4.4375 4.4375 C-5.5502832 4.65559326 -6.66306641 4.87368652 -7.80957031 5.09838867 C-14.93609262 6.47212096 -22.07416877 7.72533485 -29.25 8.8125 C-30.0639624 8.93616943 -30.8779248 9.05983887 -31.71655273 9.18725586 C-35.51065612 9.7356019 -39.15442808 10.14613173 -43 10 C-41.68 9.67 -40.36 9.34 -39 9 C-39.33 8.01 -39.66 7.02 -40 6 C-38.89785156 5.96261719 -37.79570312 5.92523438 -36.66015625 5.88671875 C-27.81286427 5.52418119 -19.26397737 4.74702597 -10.57250977 3.01635742 C-6.98903153 2.30754236 -3.6560156 1.83735327 0 2 C0 1.34 0 0.68 0 0 Z " fill="#D89E7F" transform="translate(271,273)"/>
<path d="M0 0 C5.32902585 -0.28548353 9.00036387 0.14292103 13.90234375 2.19921875 C17.49158128 3.56941185 21.23864346 4.25991827 25 5 C24.67 4.34 24.34 3.68 24 3 C25.98 3 27.96 3 30 3 C29.01 4.65 28.02 6.3 27 8 C28.32 8.33 29.64 8.66 31 9 C31 9.66 31 10.32 31 11 C32.32 11.33 33.64 11.66 35 12 C30.67457736 13.44180755 27.70830384 11.54138038 23.6875 9.875 C22.06966216 9.22363929 20.4511629 8.57391916 18.83203125 7.92578125 C18.02330566 7.6004541 17.21458008 7.27512695 16.38134766 6.93994141 C12.90671759 5.56847065 9.3979443 4.30360556 5.875 3.0625 C4.73804688 2.66160156 3.60109375 2.26070312 2.4296875 1.84765625 C1.62789063 1.56792969 0.82609375 1.28820312 0 1 C0 0.67 0 0.34 0 0 Z " fill="#D07F5E" transform="translate(307,151)"/>
<path d="M0 0 C0.66 0.33 1.32 0.66 2 1 C1.58402437 2.39603943 1.16715317 3.79181199 0.75 5.1875 C0.33814453 6.56808594 0.33814453 6.56808594 -0.08203125 7.9765625 C-0.68911597 9.97606707 -1.31130132 11.97105516 -1.94921875 13.9609375 C-4.78907928 22.87338516 -6.94700902 31.88166239 -9 41 C-9.33 41 -9.66 41 -10 41 C-9.98259766 40.11248047 -9.98259766 40.11248047 -9.96484375 39.20703125 C-9.91633238 34.95882148 -10.11578549 31.16843985 -11 27 C-10.67 26.34 -10.34 25.68 -10 25 C-9.34 25 -8.68 25 -8 25 C-7.87625 23.96875 -7.7525 22.9375 -7.625 21.875 C-7.06110186 18.37883154 -6.21317941 15.31602373 -5 12 C-4.34 12 -3.68 12 -3 12 C-2.67 9.36 -2.34 6.72 -2 4 C-1.34 4 -0.68 4 0 4 C0 2.68 0 1.36 0 0 Z " fill="#D8997E" transform="translate(302,60)"/>
<path d="M0 0 C0.33 0 0.66 0 1 0 C1.33 8.25 1.66 16.5 2 25 C2.33 25 2.66 25 3 25 C3 31.27 3 37.54 3 44 C2.34 44 1.68 44 1 44 C0.93941406 42.86820312 0.87882812 41.73640625 0.81640625 40.5703125 C0.73200083 39.08852855 0.64735283 37.6067584 0.5625 36.125 C0.50352539 35.00544922 0.50352539 35.00544922 0.44335938 33.86328125 C0.28426376 29.80013136 0.28426376 29.80013136 -1 26 C-1.09501634 24.63409534 -1.13072825 23.26373514 -1.1328125 21.89453125 C-1.13410156 21.07533203 -1.13539062 20.25613281 -1.13671875 19.41210938 C-1.13285156 18.55423828 -1.12898438 17.69636719 -1.125 16.8125 C-1.12886719 15.97396484 -1.13273437 15.13542969 -1.13671875 14.27148438 C-1.12912551 9.40801295 -0.81754042 4.79493942 0 0 Z " fill="#C25D33" transform="translate(84,404)"/>
<path d="M0 0 C5 0 5 0 7.8125 2.5 C8.534375 3.325 9.25625 4.15 10 5 C7.36 4.34 4.72 3.68 2 3 C2.33 7.62 2.66 12.24 3 17 C7.62 18.65 12.24 20.3 17 22 C16.67 22.66 16.34 23.32 16 24 C14.35 24 12.7 24 11 24 C11 23.34 11 22.68 11 22 C10.37351562 21.79503906 9.74703125 21.59007812 9.1015625 21.37890625 C8.28429687 21.10949219 7.46703125 20.84007812 6.625 20.5625 C5.81289063 20.29566406 5.00078125 20.02882812 4.1640625 19.75390625 C2 19 2 19 0 18 C0 12.06 0 6.12 0 0 Z " fill="#D7977A" transform="translate(289,143)"/>
<path d="M0 0 C2 0 2 0 3.6875 1.5625 C5.52326619 4.97178007 4.78222319 7.30221767 4 11 C4.66 11 5.32 11 6 11 C6 13.31 6 15.62 6 18 C6.66 18 7.32 18 8 18 C8.12375 18.969375 8.2475 19.93875 8.375 20.9375 C8.58125 21.948125 8.7875 22.95875 9 24 C9.66 24.33 10.32 24.66 11 25 C9.5882217 25.53394179 8.17029756 26.05165104 6.75 26.5625 C5.96109375 26.85253906 5.1721875 27.14257812 4.359375 27.44140625 C2 28 2 28 -2 27 C0.64 26.34 3.28 25.68 6 25 C5.72736328 24.02389771 5.72736328 24.02389771 5.44921875 23.02807617 C4.62883197 20.08230914 3.81435202 17.13494075 3 14.1875 C2.71382813 13.16333984 2.42765625 12.13917969 2.1328125 11.08398438 C1.86210937 10.10107422 1.59140625 9.11816406 1.3125 8.10546875 C1.06113281 7.19949951 0.80976563 6.29353027 0.55078125 5.36010742 C0 3 0 3 0 0 Z " fill="#D2896A" transform="translate(287,232)"/>
<path d="M0 0 C2.97 0.495 2.97 0.495 6 1 C0.62299918 5.55833368 -5.30078317 8.29021271 -11.625 11.3125 C-12.7696875 11.87517578 -13.914375 12.43785156 -15.09375 13.01757812 C-16.73730469 13.80745117 -16.73730469 13.80745117 -18.4140625 14.61328125 C-19.4138916 15.09579346 -20.4137207 15.57830566 -21.44384766 16.07543945 C-24 17 -24 17 -27 16 C-26.34 16 -25.68 16 -25 16 C-25 15.34 -25 14.68 -25 14 C-24.01 14 -23.02 14 -22 14 C-22 13.34 -22 12.68 -22 12 C-20.02 12 -18.04 12 -16 12 C-16 11.34 -16 10.68 -16 10 C-15.01 10 -14.02 10 -13 10 C-13 9.34 -13 8.68 -13 8 C-11.68 8 -10.36 8 -9 8 C-9 7.34 -9 6.68 -9 6 C-8.01 5.67 -7.02 5.34 -6 5 C-6 4.34 -6 3.68 -6 3 C-3.03 3.495 -3.03 3.495 0 4 C0 2.68 0 1.36 0 0 Z " fill="#DAA189" transform="translate(353,241)"/>
<path d="M0 0 C3.125 0.375 3.125 0.375 6 1 C5.154375 1.66 4.30875 2.32 3.4375 3 C0.84373007 5.60886627 0.84373007 5.60886627 0.85546875 7.9375 C1.2228178 10.7485188 1.86209229 13.44639905 2.546875 16.1953125 C3.17747585 20.09851431 3.14444313 23.92804533 3.125 27.875 C3.12886719 28.65230469 3.13273437 29.42960937 3.13671875 30.23046875 C3.12883117 34.92358006 2.77762682 39.37126895 2 44 C1.67 44 1.34 44 1 44 C1.01047363 43.35973877 1.02094727 42.71947754 1.03173828 42.05981445 C1.07344815 39.14408329 1.09937363 36.22841505 1.125 33.3125 C1.14175781 32.30509766 1.15851563 31.29769531 1.17578125 30.25976562 C1.18222656 29.28330078 1.18867188 28.30683594 1.1953125 27.30078125 C1.20578613 26.40528564 1.21625977 25.50979004 1.22705078 24.5871582 C0.97583996 21.72470542 0.1168983 19.63288016 -1 17 C-1.33427289 14.44712556 -1.57890275 11.88147489 -1.75 9.3125 C-1.80542969 8.63638672 -1.86085938 7.96027344 -1.91796875 7.26367188 C-2.0329597 5.51267329 -2.0249173 3.75459343 -2 2 C-1.34 1.34 -0.68 0.68 0 0 Z " fill="#EAB39B" transform="translate(312,261)"/>
<path d="M0 0 C0.99 0.33 1.98 0.66 3 1 C1.67050019 3.88533964 0.17702128 6.16585581 -1.8984375 8.56640625 C-2.46046875 9.21673828 -3.0225 9.86707031 -3.6015625 10.53710938 C-4.18679688 11.20548828 -4.77203125 11.87386719 -5.375 12.5625 C-5.9525 13.23474609 -6.53 13.90699219 -7.125 14.59960938 C-9.87548779 17.76141441 -12.46034951 20.689637 -16 23 C-16 21.35 -16 19.7 -16 18 C-15.34 17.67 -14.68 17.34 -14 17 C-12.86649466 14.98330173 -12.86649466 14.98330173 -12 13 C-11.34 13.33 -10.68 13.66 -10 14 C-9.67 13.01 -9.34 12.02 -9 11 C-8.34 11 -7.68 11 -7 11 C-7 10.34 -7 9.68 -7 9 C-6.01 9 -5.02 9 -4 9 C-3.896875 8.443125 -3.79375 7.88625 -3.6875 7.3125 C-2.86866423 4.55823422 -1.54146219 2.41272343 0 0 Z " fill="#D48867" transform="translate(403,198)"/>
<path d="M0 0 C1.69636983 4.07542508 0.14844185 7.45009138 -1.25 11.375 C-1.57677734 12.34566406 -1.57677734 12.34566406 -1.91015625 13.3359375 C-3.31103787 17.39931342 -4.99945579 21.198966 -7 25 C-8.33242745 22.3351451 -7.58505967 20.85216588 -7 18 C-7.33 17.67 -7.66 17.34 -8 17 C-8 17.99 -8 18.98 -8 20 C-8.66 20 -9.32 20 -10 20 C-7.94643799 12.71918922 -3.9266727 6.40667652 0 0 Z " fill="#D89C82" transform="translate(426,154)"/>
<path d="M0 0 C0.66 0.33 1.32 0.66 2 1 C0.81651225 3.73681541 -0.12131236 5.60468041 -2.91015625 6.859375 C-4.34272597 7.32736511 -5.77632334 7.79222133 -7.2109375 8.25390625 C-9.19285777 8.87142122 -9.19285777 8.87142122 -10.1875 11 C-10.455625 11.66 -10.72375 12.32 -11 13 C-14.43624858 15.48173509 -17.9602122 16.7786688 -22 18 C-18.38013715 13.43024406 -15.0111086 10.08375914 -10 7 C-8.20246235 5.75845748 -6.41115855 4.50785813 -4.625 3.25 C-3.75101563 2.63640625 -2.87703125 2.0228125 -1.9765625 1.390625 C-1.32429688 0.93171875 -0.67203125 0.4728125 0 0 Z " fill="#D59175" transform="translate(148,295)"/>
<path d="M0 0 C1.65 0.33 3.3 0.66 5 1 C5.8125 3.1875 5.8125 3.1875 6 6 C3.8125 8.8125 3.8125 8.8125 1 11 C-0.32 11 -1.64 11 -3 11 C-2.67 12.32 -2.34 13.64 -2 15 C-4.9375 14.625 -4.9375 14.625 -8 14 C-8.33 13.34 -8.66 12.68 -9 12 C-7.68 12 -6.36 12 -5 12 C-4.773125 11.443125 -4.54625 10.88625 -4.3125 10.3125 C-2.64297946 7.37096381 -0.41324179 5.3513638 2 3 C2.33 2.34 2.66 1.68 3 1 C2.01 0.67 1.02 0.34 0 0 Z " fill="#C65F37" transform="translate(401,186)"/>
<path d="M0 0 C0.99 0 1.98 0 3 0 C2.81824219 0.54785156 2.63648437 1.09570312 2.44921875 1.66015625 C0.01686615 9.33142215 -1.51550671 17.10375912 -3 25 C-3.66 25 -4.32 25 -5 25 C-7.05257931 21.55166676 -8.0632763 19.68338409 -7.6875 15.625 C-7.460625 14.75875 -7.23375 13.8925 -7 13 C-6.67 14.32 -6.34 15.64 -6 17 C-5.01 17 -4.02 17 -3 17 C-2.67 13.04 -2.34 9.08 -2 5 C-1.34 5 -0.68 5 0 5 C0 3.35 0 1.7 0 0 Z " fill="#DB9F88" transform="translate(103,469)"/>
<path d="M0 0 C-1.29584119 2.59168238 -2.33651601 2.92542197 -5 4 C-7.578125 4.4140625 -7.578125 4.4140625 -10.25 4.625 C-11.14203125 4.69976562 -12.0340625 4.77453125 -12.953125 4.8515625 C-13.62859375 4.90054687 -14.3040625 4.94953125 -15 5 C-15 5.99 -15 6.98 -15 8 C-19.8043208 10.4021604 -24.73103895 10.61122229 -30 11 C-27.39631983 8.39631983 -24.43364486 7.42892948 -21.0625 6.125 C-20.05956909 5.73235962 -20.05956909 5.73235962 -19.03637695 5.33178711 C-17.02651496 4.54853383 -15.01342272 3.7740447 -13 3 C-11.88882813 2.56558594 -10.77765625 2.13117188 -9.6328125 1.68359375 C-8.66085938 1.31363281 -7.68890625 0.94367188 -6.6875 0.5625 C-5.39392578 0.06943359 -5.39392578 0.06943359 -4.07421875 -0.43359375 C-2 -1 -2 -1 0 0 Z " fill="#D79176" transform="translate(192,277)"/>
<path d="M0 0 C1.79898964 2.69848446 2.59509623 4.51970543 3.5078125 7.5625 C3.77207031 8.44164062 4.03632813 9.32078125 4.30859375 10.2265625 C4.57800781 11.14179688 4.84742188 12.05703125 5.125 13 C5.54072266 14.37285156 5.54072266 14.37285156 5.96484375 15.7734375 C8 22.61076047 8 22.61076047 8 26 C8.99 26.33 9.98 26.66 11 27 C11 27.33 11 27.66 11 28 C9.02 28 7.04 28 5 28 C4.67 27.01 4.34 26.02 4 25 C4.66 25 5.32 25 6 25 C4.91602697 22.24837615 3.80584402 19.62722052 2.4375 17 C0.09182666 11.68077107 0.24961143 5.72384822 0 0 Z " fill="#D69777" transform="translate(302,216)"/>
<path d="M0 0 C0.66 0 1.32 0 2 0 C2.04898437 1.01320312 2.09796875 2.02640625 2.1484375 3.0703125 C2.22352564 4.42189911 2.29907081 5.77346038 2.375 7.125 C2.4059375 7.79015625 2.436875 8.4553125 2.46875 9.140625 C2.65474111 12.30247389 3.00868789 15.02553713 4.03125 18.03125 C5.1993566 21.61093151 5.19585786 24.61953356 5.125 28.375 C5.10695313 29.62023437 5.08890625 30.86546875 5.0703125 32.1484375 C5.04710937 33.08945313 5.02390625 34.03046875 5 35 C4.67 35 4.34 35 4 35 C3.31792189 31.23179053 2.6572646 27.46011 2 23.6875 C1.80921875 22.63498047 1.6184375 21.58246094 1.421875 20.49804688 C0.23202808 13.5926853 -0.25122457 7.00375723 0 0 Z " fill="#DB9E86" transform="translate(274,163)"/>
<path d="M0 0 C0.33 0 0.66 0 1 0 C1.06058594 0.98742187 1.12117188 1.97484375 1.18359375 2.9921875 C1.26738281 4.27351563 1.35117188 5.55484375 1.4375 6.875 C1.51871094 8.15117187 1.59992188 9.42734375 1.68359375 10.7421875 C1.79206027 13.88300152 1.79206027 13.88300152 3 16 C3.15266612 17.73868744 3.24932596 19.48247501 3.31640625 21.2265625 C3.35830078 22.2578125 3.40019531 23.2890625 3.44335938 24.3515625 C3.48267578 25.43179687 3.52199219 26.51203125 3.5625 27.625 C3.60568359 28.71296875 3.64886719 29.8009375 3.69335938 30.921875 C3.7996453 33.6144517 3.90168057 36.30712253 4 39 C1.48211756 35.22317635 1.29950857 31.77742406 0.875 27.375 C0.79008301 26.5399292 0.70516602 25.7048584 0.61767578 24.84448242 C-0.15882919 16.55525279 -0.19166848 8.31628235 0 0 Z " fill="#E0A68F" transform="translate(82,416)"/>
<path d="M0 0 C-1.84068144 4.51803627 -4.99380818 7.76088152 -9.125 10.3125 C-11 11 -11 11 -14 11 C-14.66 12.32 -15.32 13.64 -16 15 C-17.32 14.67 -18.64 14.34 -20 14 C-17.37748931 11.85110957 -14.75157805 9.70641627 -12.125 7.5625 C-11.00544922 6.64500977 -11.00544922 6.64500977 -9.86328125 5.70898438 C-9.14785156 5.12568359 -8.43242188 4.54238281 -7.6953125 3.94140625 C-7.03547363 3.40201416 -6.37563477 2.86262207 -5.69580078 2.30688477 C-3.6869074 0.75871226 -2.56369377 0 0 0 Z " fill="#D08561" transform="translate(136,416)"/>
<path d="M0 0 C0.33 1.32 0.66 2.64 1 4 C0.01 3.67 -0.98 3.34 -2 3 C-2.433125 4.3921875 -2.433125 4.3921875 -2.875 5.8125 C-4 9 -4 9 -6 12 C-6.99 12 -7.98 12 -9 12 C-9 12.66 -9 13.32 -9 14 C-9.66 13.67 -10.32 13.34 -11 13 C-10.67 10.69 -10.34 8.38 -10 6 C-10.66 5.67 -11.32 5.34 -12 5 C-10.35 5 -8.7 5 -7 5 C-7 4.01 -7 3.02 -7 2 C-2.25 0 -2.25 0 0 0 Z " fill="#CB5A2B" transform="translate(405,195)"/>
<path d="M0 0 C0 4.2650016 -2.44473414 6.50032379 -5 9.6875 C-5.47695313 10.29400391 -5.95390625 10.90050781 -6.4453125 11.52539062 C-7.62376394 13.02202396 -8.81105188 14.51169173 -10 16 C-10.33 15.01 -10.66 14.02 -11 13 C-11.99 13.33 -12.98 13.66 -14 14 C-14 13.34 -14 12.68 -14 12 C-13.34 12 -12.68 12 -12 12 C-11.77570313 11.42765625 -11.55140625 10.8553125 -11.3203125 10.265625 C-9.6219841 7.35133367 -7.54119931 5.80092255 -4.875 3.75 C-3.96492188 3.04359375 -3.05484375 2.3371875 -2.1171875 1.609375 C-1.41851562 1.07828125 -0.71984375 0.5471875 0 0 Z " fill="#D69781" transform="translate(325,27)"/>
<path d="M0 0 C0.99 0.99 1.98 1.98 3 3 C2.67 3.66 2.34 4.32 2 5 C1.34 5 0.68 5 0 5 C-0.33 6.32 -0.66 7.64 -1 9 C-2.98 9 -4.96 9 -7 9 C-7.33 7.35 -7.66 5.7 -8 4 C-5.36 2.68 -2.72 1.36 0 0 Z " fill="#CA5A27" transform="translate(369,227)"/>
<path d="M0 0 C1.98 0.495 1.98 0.495 4 1 C5.38766322 7.05525768 4.49118146 10.32010626 2 16 C1.34 16 0.68 16 0 16 C-0.19441368 13.7089095 -0.38033135 11.41709663 -0.5625 9.125 C-0.71912109 7.21074219 -0.71912109 7.21074219 -0.87890625 5.2578125 C-1 2 -1 2 0 0 Z " fill="#CB5826" transform="translate(292,69)"/>
<path d="M0 0 C1.17719456 3.44349429 0.83086208 5.66153505 -0.1875 9.125 C-0.42855469 9.99382812 -0.66960937 10.86265625 -0.91796875 11.7578125 C-2.20852216 14.43210006 -3.26387795 14.99165688 -6 16 C-5.9175 16.9075 -5.835 17.815 -5.75 18.75 C-6.05464439 22.71037702 -7.14911051 23.4184859 -10 26 C-5.14893617 5.14893617 -5.14893617 5.14893617 0 0 Z " fill="#D5957A" transform="translate(291,67)"/>
<path d="M0 0 C0.33 0 0.66 0 1 0 C0.85915204 1.79206547 0.71216299 3.58364917 0.5625 5.375 C0.48128906 6.37273437 0.40007812 7.37046875 0.31640625 8.3984375 C0 11 0 11 -1 13 C-1.99 13 -2.98 13 -4 13 C-4.0825 13.7425 -4.165 14.485 -4.25 15.25 C-5.1396946 18.51221354 -6.48503749 19.80954878 -9 22 C-7.00878667 14.10501383 -3.81085857 7.17773362 0 0 Z " fill="#D28869" transform="translate(101,345)"/>
<path d="M0 0 C-3.6102388 2.92521913 -7.54689328 5.0625098 -11.625 7.25 C-12.305625 7.62640625 -12.98625 8.0028125 -13.6875 8.390625 C-15.42525466 9.32475399 -17.21014959 10.17004594 -19 11 C-19.66 10.67 -20.32 10.34 -21 10 C-21 9.01 -21 8.02 -21 7 C-18.36 6.67 -15.72 6.34 -13 6 C-12.896875 5.360625 -12.79375 4.72125 -12.6875 4.0625 C-12.460625 3.381875 -12.23375 2.70125 -12 2 C-11.01 1.67 -10.02 1.34 -9 1 C-8.01 0.62875 -7.02 0.2575 -6 -0.125 C-3 -1 -3 -1 0 0 Z " fill="#D5906F" transform="translate(228,380)"/>
<path d="M0 0 C1.32 0.66 2.64 1.32 4 2 C1.69 4.64 -0.62 7.28 -3 10 C-3.66 9.34 -4.32 8.68 -5 8 C-6.32 8.99 -7.64 9.98 -9 11 C-8.38722388 8.03824877 -7.74627478 6.61941217 -6 4 C-4.35857037 2.9590934 -2.69287785 1.95495674 -1 1 C-0.67 0.67 -0.34 0.34 0 0 Z " fill="#CB5726" transform="translate(278,337)"/>
<path d="M0 0 C2.0625 0.4375 2.0625 0.4375 4 1 C4.06058594 1.68707031 4.12117188 2.37414062 4.18359375 3.08203125 C4.26738281 3.98308594 4.35117187 4.88414062 4.4375 5.8125 C4.51871094 6.70582031 4.59992188 7.59914063 4.68359375 8.51953125 C4.93489767 11.12743559 4.93489767 11.12743559 6 14 C6.01546261 15.48354153 5.96835798 16.96829574 5.87890625 18.44921875 C5.83056641 19.29677734 5.78222656 20.14433594 5.73242188 21.01757812 C5.67634766 21.89865234 5.62027344 22.77972656 5.5625 23.6875 C5.51029297 24.58017578 5.45808594 25.47285156 5.40429688 26.39257812 C5.2747182 28.5954156 5.13975754 30.79778873 5 33 C4.01 33.495 4.01 33.495 3 34 C3.01047363 33.38592285 3.02094727 32.7718457 3.03173828 32.13916016 C3.07384209 29.30115003 3.09949622 26.46320599 3.125 23.625 C3.14175781 22.65949219 3.15851563 21.69398438 3.17578125 20.69921875 C3.21818551 14.38098386 3.02499842 8.0466736 1 2 C0.34 1.67 -0.32 1.34 -1 1 C-0.67 0.67 -0.34 0.34 0 0 Z " fill="#E2A98D" transform="translate(298,269)"/>
<path d="M0 0 C6.15017373 -0.32947359 10.39708929 0.52714478 16 3 C17.01900391 3.42925781 17.01900391 3.42925781 18.05859375 3.8671875 C19.71114321 4.56544783 21.35640067 5.28092529 23 6 C22.67 6.66 22.34 7.32 22 8 C14.49068545 6.0827282 7.24196241 3.75950985 0 1 C0 0.67 0 0.34 0 0 Z " fill="#CD8262" transform="translate(350,199)"/>
<path d="M0 0 C0.5534764 2.07553648 1 3.84365964 1 6 C1.99 5.67 2.98 5.34 4 5 C4.125 10.75 4.125 10.75 3 13 C2.01 13 1.02 13 0 13 C0 12.34 0 11.68 0 11 C-1.32 10.67 -2.64 10.34 -4 10 C-3.5205537 5.78087253 -2.83374881 3.20336822 0 0 Z " fill="#C65B2E" transform="translate(296,59)"/>
<path d="M0 0 C0.89203125 0.01804687 1.7840625 0.03609375 2.703125 0.0546875 C3.71632812 0.08949219 3.71632812 0.08949219 4.75 0.125 C4.75 0.455 4.75 0.785 4.75 1.125 C1.04282359 2.10858241 -2.66593212 3.08607671 -6.375 4.0625 C-7.94507813 4.47918945 -7.94507813 4.47918945 -9.546875 4.90429688 C-11.07441406 5.30551758 -11.07441406 5.30551758 -12.6328125 5.71484375 C-14.03104248 6.08403931 -14.03104248 6.08403931 -15.45751953 6.46069336 C-18.3741535 7.15453503 -21.28833384 7.66450868 -24.25 8.125 C-23.59 7.795 -22.93 7.465 -22.25 7.125 C-22.25 6.465 -22.25 5.805 -22.25 5.125 C-19.94 5.125 -17.63 5.125 -15.25 5.125 C-15.25 4.135 -15.25 3.145 -15.25 2.125 C-13.88875 2.186875 -13.88875 2.186875 -12.5 2.25 C-9.37438955 2.3664787 -9.37438955 2.3664787 -7.375 1.125 C-4.76326765 -0.10405052 -2.87059491 -0.07554197 0 0 Z " fill="#DB9C80" transform="translate(223.25,282.875)"/>
<path d="M0 0 C0 0.66 0 1.32 0 2 C-0.99 2.495 -0.99 2.495 -2 3 C-1.01 3.66 -0.02 4.32 1 5 C1.1875 8.125 1.1875 8.125 1 11 C0.01 11 -0.98 11 -2 11 C-2 10.34 -2 9.68 -2 9 C-2.99 8.67 -3.98 8.34 -5 8 C-5 7.01 -5 6.02 -5 5 C-5.66 4.67 -6.32 4.34 -7 4 C-7 3.01 -7 2.02 -7 1 C-4.50935112 0.31292445 -2.62113708 0 0 0 Z " fill="#CB5826" transform="translate(352,234)"/>
<path d="M0 0 C8.38448049 1.75142481 8.38448049 1.75142481 12.25 3.3125 C15.07456984 4.3355643 15.07456984 4.3355643 17.75 2.625 C18.4925 2.08875 19.235 1.5525 20 1 C20.66 1 21.32 1 22 1 C22 2.65 22 4.3 22 6 C21.071875 5.979375 20.14375 5.95875 19.1875 5.9375 C15.97713989 5.84230396 15.97713989 5.84230396 13 7 C10.95703125 6.44140625 10.95703125 6.44140625 8.8125 5.5625 C8.09707031 5.27503906 7.38164062 4.98757812 6.64453125 4.69140625 C5.83048828 4.34916016 5.83048828 4.34916016 5 4 C5 3.34 5 2.68 5 2 C3.68 2.33 2.36 2.66 1 3 C0.67 2.01 0.34 1.02 0 0 Z " fill="#D89677" transform="translate(351,216)"/>
<path d="M0 0 C0.99 0 1.98 0 3 0 C3.32553153 3.13595379 3.37215505 4.52487 1.390625 7.0546875 C0.68421875 7.65539062 -0.0221875 8.25609375 -0.75 8.875 C-1.44609375 9.49117188 -2.1421875 10.10734375 -2.859375 10.7421875 C-5 12 -5 12 -7.265625 11.6953125 C-7.83796875 11.46585937 -8.4103125 11.23640625 -9 11 C-8.34 10.01 -7.68 9.02 -7 8 C-6.01 8 -5.02 8 -4 8 C-4 7.34 -4 6.68 -4 6 C-3.34 5.67 -2.68 5.34 -2 5 C-1.27840576 3.35636866 -0.60648579 1.68949614 0 0 Z " fill="#C85828" transform="translate(295,318)"/>
<path d="M0 0 C4.75683031 0.76906837 9.16161012 2.33673996 13.6875 3.9375 C14.84475586 4.33485352 14.84475586 4.33485352 16.02539062 4.74023438 C16.76337891 4.99998047 17.50136719 5.25972656 18.26171875 5.52734375 C18.93162842 5.76187256 19.60153809 5.99640137 20.29174805 6.23803711 C22 7 22 7 24 9 C22.54119891 8.85892253 21.08296449 8.71197585 19.625 8.5625 C18.81289063 8.48128906 18.00078125 8.40007812 17.1640625 8.31640625 C15 8 15 8 13 7 C13 6.34 13 5.68 13 5 C11.02 5.33 9.04 5.66 7 6 C7 5.34 7 4.68 7 4 C5.35 3.67 3.7 3.34 2 3 C2 2.34 2 1.68 2 1 C1.34 0.67 0.68 0.34 0 0 Z " fill="#D99B7F" transform="translate(330,175)"/>
<path d="M0 0 C0.640625 1.7734375 0.640625 1.7734375 1 4 C0.109375 5.8515625 0.109375 5.8515625 -1.25 7.625 C-1.68828125 8.21539062 -2.1265625 8.80578125 -2.578125 9.4140625 C-4.7080191 11.78971361 -6.36948065 12.93848592 -9.5625 13.25 C-12 13 -12 13 -14 11 C-13.625 8.875 -13.625 8.875 -13 7 C-12.01 8.485 -12.01 8.485 -11 10 C-7.75480334 9.69593558 -6.38099448 9.43719323 -4.19921875 6.93359375 C-3.70035156 6.10988281 -3.20148438 5.28617187 -2.6875 4.4375 C-2.17574219 3.61121094 -1.66398437 2.78492188 -1.13671875 1.93359375 C-0.76160156 1.29550781 -0.38648437 0.65742188 0 0 Z " fill="#D59272" transform="translate(103,444)"/>
<path d="M0 0 C0.66 0.33 1.32 0.66 2 1 C1.67 1.99 1.34 2.98 1 4 C-0.32 4 -1.64 4 -3 4 C-3 4.66 -3 5.32 -3 6 C-6.67452438 8.8394052 -8.26886581 10 -13 10 C-13 10.66 -13 11.32 -13 12 C-14.32 11.67 -15.64 11.34 -17 11 C-14.21681883 9.13284189 -11.42220667 7.28356646 -8.625 5.4375 C-7.8309375 4.90447266 -7.036875 4.37144531 -6.21875 3.82226562 C-5.45820313 3.32275391 -4.69765625 2.82324219 -3.9140625 2.30859375 C-2.8614624 1.60947876 -2.8614624 1.60947876 -1.78759766 0.89624023 C-1.19769043 0.60048096 -0.6077832 0.30472168 0 0 Z " fill="#D8957A" transform="translate(163,397)"/>
<path d="M0 0 C0.33 0 0.66 0 1 0 C1 3.3 1 6.6 1 10 C0.01 10.33 -0.98 10.66 -2 11 C-3.5 9.8125 -3.5 9.8125 -5 8 C-5.1875 5.3125 -5.1875 5.3125 -5 3 C-4.01 3.33 -3.02 3.66 -2 4 C-1.34 2.68 -0.68 1.36 0 0 Z M-6 10 C-5.01 10.495 -5.01 10.495 -4 11 C-4.99 11.495 -4.99 11.495 -6 12 C-6 11.34 -6 10.68 -6 10 Z " fill="#CA5827" transform="translate(92,390)"/>
<path d="M0 0 C5.61 0 11.22 0 17 0 C17 0.66 17 1.32 17 2 C14.60468244 2.33745354 12.20885732 2.6700829 9.8125 3 C9.13896484 3.09539062 8.46542969 3.19078125 7.77148438 3.2890625 C4.15335423 3.78324613 0.65203599 4.11346131 -3 4 C-1.68 3.67 -0.36 3.34 1 3 C0.67 2.01 0.34 1.02 0 0 Z " fill="#D89B80" transform="translate(231,279)"/>
<path d="M0 0 C-3.00617269 3.00617269 -5.82381598 2.59585316 -10 3 C-10 3.66 -10 4.32 -10 5 C-10.66 5.66 -11.32 6.32 -12 7 C-15.125 6.625 -15.125 6.625 -18 6 C-18.33 6.66 -18.66 7.32 -19 8 C-19.66 7.34 -20.32 6.68 -21 6 C-18.25538312 4.79848104 -15.50547873 3.61361897 -12.75 2.4375 C-11.97269531 2.09525391 -11.19539063 1.75300781 -10.39453125 1.40039062 C-9.64042969 1.08134766 -8.88632812 0.76230469 -8.109375 0.43359375 C-7.07248535 -0.01415405 -7.07248535 -0.01415405 -6.01464844 -0.47094727 C-3.64929576 -1.09209599 -2.28986553 -0.77451334 0 0 Z " fill="#DA977B" transform="translate(351,232)"/>
<path d="M0 0 C8.49163085 1.4897598 16.0894839 4.68571262 24 8 C24 8.33 24 8.66 24 9 C22.02 9 20.04 9 18 9 C18 8.34 18 7.68 18 7 C16.205625 6.8453125 16.205625 6.8453125 14.375 6.6875 C10.41417401 6.21164105 7.54035683 4.85064107 4 3 C2.68 3 1.36 3 0 3 C0 2.01 0 1.02 0 0 Z " fill="#DDA286" transform="translate(290,128)"/>
<path d="M0 0 C1.98 0 3.96 0 6 0 C2.66248862 2.66343273 -0.88101852 4.70475504 -4.625 6.75 C-5.77226562 7.38421875 -6.91953125 8.0184375 -8.1015625 8.671875 C-9.05804688 9.11015625 -10.01453125 9.5484375 -11 10 C-11.66 9.67 -12.32 9.34 -13 9 C-12 6 -12 6 -9 4 C-5.8125 3.875 -5.8125 3.875 -3 4 C-3 3.34 -3 2.68 -3 2 C-2.01 2 -1.02 2 0 2 C0 1.34 0 0.68 0 0 Z " fill="#D8997B" transform="translate(201,391)"/>
<path d="M0 0 C0.66 0.33 1.32 0.66 2 1 C1.67 1.66 1.34 2.32 1 3 C0.34 3 -0.32 3 -1 3 C-1.33 3.99 -1.66 4.98 -2 6 C-3.65 6 -5.3 6 -7 6 C-7 6.66 -7 7.32 -7 8 C-8.32 8 -9.64 8 -11 8 C-11.33 8.66 -11.66 9.32 -12 10 C-14.5625 10.625 -14.5625 10.625 -17 11 C-13.44145169 8.03344679 -9.8017732 5.54141897 -5.8125 3.1875 C-4.76707031 2.56230469 -3.72164062 1.93710937 -2.64453125 1.29296875 C-1.33548828 0.65294922 -1.33548828 0.65294922 0 0 Z " fill="#D59372" transform="translate(209,372)"/>
<path d="M0 0 C0.33 0 0.66 0 1 0 C1.31995413 24.03211009 1.31995413 24.03211009 -2 32 C-2.33 32 -2.66 32 -3 32 C-3.125 25.375 -3.125 25.375 -2 22 C-1.78626703 20.3022542 -1.61265449 18.59928184 -1.46484375 16.89453125 C-1.37783203 15.91162109 -1.29082031 14.92871094 -1.20117188 13.91601562 C-1.11416016 12.89185547 -1.02714844 11.86769531 -0.9375 10.8125 C-0.84662109 9.77673828 -0.75574219 8.74097656 -0.66210938 7.67382812 C-0.43816517 5.11614956 -0.21759327 2.55822541 0 0 Z " fill="#BB5F38" transform="translate(313,283)"/>
<path d="M0 0 C0.33 0 0.66 0 1 0 C0.46839258 9.01470449 -0.10504464 18.01236323 -1 27 C-1.33 27 -1.66 27 -2 27 C-2.05811773 23.25006521 -2.09363593 19.50024648 -2.125 15.75 C-2.14175781 14.68652344 -2.15851563 13.62304688 -2.17578125 12.52734375 C-2.18222656 11.50253906 -2.18867188 10.47773437 -2.1953125 9.421875 C-2.20578613 8.47924805 -2.21625977 7.53662109 -2.22705078 6.56542969 C-1.99119213 3.90048059 -1.35661659 2.28136908 0 0 Z " fill="#DD9F84" transform="translate(291,101)"/>
<path d="M0 0 C0.66 0.33 1.32 0.66 2 1 C1.21625 1.721875 0.4325 2.44375 -0.375 3.1875 C-3.07790453 5.69916439 -3.07790453 5.69916439 -3.8125 8.375 C-5.73246964 12.61914341 -9.42644535 15.1162245 -13 18 C-13 12.65784368 -8.93118775 8.97553003 -5.375 5.25 C-4.59125 4.5075 -3.8075 3.765 -3 3 C-2.401875 2.401875 -1.80375 1.80375 -1.1875 1.1875 C-0.795625 0.795625 -0.40375 0.40375 0 0 Z " fill="#DFA890" transform="translate(124,313)"/>
<path d="M0 0 C-3.32850747 3.59478807 -6.98971331 6.22364768 -11 9 C-11.66 8.67 -12.32 8.34 -13 8 C-12.67 7.01 -12.34 6.02 -12 5 C-11.01 5 -10.02 5 -9 5 C-8.67 3.35 -8.34 1.7 -8 0 C-4.71023192 -1.09658936 -3.28696233 -0.79953138 0 0 Z " fill="#D17851" transform="translate(154,421)"/>
<path d="M0 0 C2.97 0.33 5.94 0.66 9 1 C9 1.66 9 2.32 9 3 C10.65 3 12.3 3 14 3 C14 3.66 14 4.32 14 5 C15.0828125 4.9071875 15.0828125 4.9071875 16.1875 4.8125 C19.52858974 5.03523932 21.27032755 6.1282246 24 8 C22 9 22 9 18.26171875 7.85546875 C16.73419931 7.30716265 15.20955403 6.75079986 13.6875 6.1875 C12.92759766 5.91357422 12.16769531 5.63964844 11.38476562 5.35742188 C7.56162275 3.97232146 3.76392985 2.54013098 0 1 C0 0.67 0 0.34 0 0 Z " fill="#DDA78F" transform="translate(364,172)"/>
<path d="M0 0 C0.66 0 1.32 0 2 0 C2 2.64 2 5.28 2 8 C2.66 8 3.32 8 4 8 C4 9.98 4 11.96 4 14 C4.66 14 5.32 14 6 14 C6.625 16.8125 6.625 16.8125 7 20 C6.34 20.99 5.68 21.98 5 23 C4.15854044 19.91882573 3.32826938 16.83474379 2.5 13.75 C2.26152344 12.87730469 2.02304687 12.00460938 1.77734375 11.10546875 C1.55175781 10.26113281 1.32617188 9.41679687 1.09375 8.546875 C0.88427734 7.77182617 0.67480469 6.99677734 0.45898438 6.19824219 C0 4 0 4 0 0 Z " fill="#DA9C80" transform="translate(281,208)"/>
<path d="M0 0 C6.71539173 1.29975324 12.72019113 3.29928888 19 6 C17.02 6.99 17.02 6.99 15 8 C15 7.34 15 6.68 15 6 C13.5459375 5.8453125 13.5459375 5.8453125 12.0625 5.6875 C7.51406161 5.05370121 3.30582896 3.55244173 -1 2 C-0.67 1.34 -0.34 0.68 0 0 Z " fill="#D7967B" transform="translate(332,209)"/>
<path d="M0 0 C0.33 0.99 0.66 1.98 1 3 C-0.546875 5.6640625 -0.546875 5.6640625 -2.75 8.625 C-3.46671875 9.60726562 -4.1834375 10.58953125 -4.921875 11.6015625 C-7 14 -7 14 -10 15 C-8.59601721 10.89889238 -6.62912962 8.01910841 -3.875 4.6875 C-3.15054687 3.80449219 -2.42609375 2.92148437 -1.6796875 2.01171875 C-1.12539063 1.34785156 -0.57109375 0.68398438 0 0 Z " fill="#CD7F5E" transform="translate(307,44)"/>
<path d="M0 0 C0.99928333 2.698065 1.03624754 3.88010429 0.1875 6.6875 C-1 9 -1 9 -3 10 C-3.72159424 11.64363134 -4.39351421 13.31050386 -5 15 C-5.66 15 -6.32 15 -7 15 C-7 15.66 -7 16.32 -7 17 C-7.99 17 -8.98 17 -10 17 C-8.17368573 13.1366429 -5.84713404 9.7368157 -3.4375 6.21875 C-2.12668884 4.19554147 -1.02918719 2.17712674 0 0 Z " fill="#DEA185" transform="translate(298,309)"/>
<path d="M0 0 C-0.50603992 2.16874252 -0.99983813 3.99967627 -2 6 C-6.95 6 -11.9 6 -17 6 C-13.79154562 4.39577281 -10.7330322 3.09692547 -7.375 1.875 C-6.41335938 1.52179688 -5.45171875 1.16859375 -4.4609375 0.8046875 C-2 0 -2 0 0 0 Z " fill="#D88E6A" transform="translate(330,239)"/>
<path d="M0 0 C0.33 0.99 0.66 1.98 1 3 C0.34 3 -0.32 3 -1 3 C-1.33 5.31 -1.66 7.62 -2 10 C-2.33 9.01 -2.66 8.02 -3 7 C-3.99 7 -4.98 7 -6 7 C-6.33 7.66 -6.66 8.32 -7 9 C-7.33 8.01 -7.66 7.02 -8 6 C-8.99 6 -9.98 6 -11 6 C-11.33 5.01 -11.66 4.02 -12 3 C-8.62294375 3.53725895 -5.303314 4.11064623 -2 5 C-2 4.01 -2 3.02 -2 2 C-1.34 2 -0.68 2 0 2 C0 1.34 0 0.68 0 0 Z " fill="#CB7955" transform="translate(420,169)"/>
<path d="M0 0 C1.73017508 0.45451184 3.45909877 0.91378857 5.1875 1.375 C6.15042969 1.63023437 7.11335938 1.88546875 8.10546875 2.1484375 C10.82210207 2.94766296 13.39137175 3.9031362 16 5 C15.01 5.66 14.02 6.32 13 7 C9.86328125 6.3203125 9.86328125 6.3203125 6.3125 5.125 C5.13300781 4.73570312 3.95351563 4.34640625 2.73828125 3.9453125 C1.83464844 3.63335937 0.93101562 3.32140625 0 3 C0 2.01 0 1.02 0 0 Z " fill="#D49071" transform="translate(392,166)"/>
<path d="M0 0 C-0.75035741 3.11799003 -1.63363411 6.18070403 -2.5625 9.25 C-2.83191406 10.14203125 -3.10132812 11.0340625 -3.37890625 11.953125 C-3.58386719 12.62859375 -3.78882812 13.3040625 -4 14 C-4.33 14 -4.66 14 -5 14 C-5 9.71 -5 5.42 -5 1 C-2 0 -2 0 0 0 Z " fill="#CE5725" transform="translate(99,372)"/>
<path d="M0 0 C2.97 0.495 2.97 0.495 6 1 C2.0826156 4.42771135 -3.52151811 9 -9 9 C-9 8.01 -9 7.02 -9 6 C-8.01 5.67 -7.02 5.34 -6 5 C-6 4.34 -6 3.68 -6 3 C-3.03 3.495 -3.03 3.495 0 4 C0 2.68 0 1.36 0 0 Z " fill="#D68F71" transform="translate(353,241)"/>
<path d="M0 0 C1.32 0.33 2.64 0.66 4 1 C2.18992669 2.50292743 0.37687764 4.00227171 -1.4375 5.5 C-2.44683594 6.3353125 -3.45617187 7.170625 -4.49609375 8.03125 C-7 10 -7 10 -8 10 C-8 8.35 -8 6.7 -8 5 C-6.68 4.67 -5.36 4.34 -4 4 C-4 3.34 -4 2.68 -4 2 C-2.68 2 -1.36 2 0 2 C0 1.34 0 0.68 0 0 Z " fill="#D28664" transform="translate(140,321)"/>
<path d="M0 0 C0.99 0.33 1.98 0.66 3 1 C3.12375 1.969375 3.2475 2.93875 3.375 3.9375 C3.58125 4.948125 3.7875 5.95875 4 7 C4.66 7.33 5.32 7.66 6 8 C4.5882217 8.53394179 3.17029756 9.05165104 1.75 9.5625 C0.96109375 9.85253906 0.1721875 10.14257812 -0.640625 10.44140625 C-3 11 -3 11 -7 10 C-4.36 9.34 -1.72 8.68 1 8 C0.67 5.36 0.34 2.72 0 0 Z " fill="#DB9B80" transform="translate(292,249)"/>
<path d="M0 0 C1.65 0 3.3 0 5 0 C5.33 0.66 5.66 1.32 6 2 C4.35 1.67 2.7 1.34 1 1 C2.32 6.28 3.64 11.56 5 17 C4.34 17.33 3.68 17.66 3 18 C0.22528921 11.75690073 -0.37634203 6.80203375 0 0 Z " fill="#DEA78C" transform="translate(293,178)"/>
<path d="M0 0 C4.60416626 0.60875755 8.56483324 1.84722956 12.875 3.5625 C14.02742188 4.01753906 15.17984375 4.47257813 16.3671875 4.94140625 C17.67042969 5.46541016 17.67042969 5.46541016 19 6 C19 6.33 19 6.66 19 7 C17.41590006 6.88512252 15.83271037 6.75765492 14.25 6.625 C13.36828125 6.55539063 12.4865625 6.48578125 11.578125 6.4140625 C8.61947099 5.93888474 6.15396403 5.15396403 4 3 C3.01 3.495 3.01 3.495 2 4 C2 3.01 2 2.02 2 1 C1.34 0.67 0.68 0.34 0 0 Z " fill="#D7987C" transform="translate(314,137)"/>
<path d="M0 0 C6.48707154 1.6813917 12.7677635 3.53062327 19 6 C19 6.33 19 6.66 19 7 C11.57142857 7.28571429 11.57142857 7.28571429 8 5 C8 4.34 8 3.68 8 3 C5.69 3 3.38 3 1 3 C0.67 2.01 0.34 1.02 0 0 Z " fill="#DC9C80" transform="translate(333,144)"/>
<path d="M0 0 C-3.7935871 3.21880117 -7.65829477 5.6163187 -12 8 C-12 6.68 -12 5.36 -12 4 C-11.01 4 -10.02 4 -9 4 C-9 3.01 -9 2.02 -9 1 C-5.92677456 0.08941469 -3.19902639 -0.08886184 0 0 Z " fill="#D48869" transform="translate(166,413)"/>
<path d="M0 0 C0.33 1.32 0.66 2.64 1 4 C1.99 4 2.98 4 4 4 C4 6.64 4 9.28 4 12 C3.34 12 2.68 12 2 12 C-0.05257931 8.55166676 -1.0632763 6.68338409 -0.6875 2.625 C-0.460625 1.75875 -0.23375 0.8925 0 0 Z " fill="#D59378" transform="translate(96,482)"/>
<path d="M0 0 C-3.7935871 3.21880117 -7.65829477 5.6163187 -12 8 C-12 7.01 -12 6.02 -12 5 C-11.01 5 -10.02 5 -9 5 C-9 4.34 -9 3.68 -9 3 C-9.66 2.67 -10.32 2.34 -11 2 C-7.17679443 0.57741188 -4.08718695 -0.24042276 0 0 Z " fill="#D58D6E" transform="translate(280,351)"/>
<path d="M0 0 C-1.14206358 1.50287218 -2.28874957 3.00223284 -3.4375 4.5 C-4.39462891 5.75296875 -4.39462891 5.75296875 -5.37109375 7.03125 C-5.90863281 7.6809375 -6.44617188 8.330625 -7 9 C-7.33 9 -7.66 9 -8 9 C-8.25 5.6875 -8.25 5.6875 -8 2 C-5.25168647 -1.14092975 -3.81481912 -1.15406293 0 0 Z " fill="#D28765" transform="translate(121,344)"/>
<path d="M0 0 C1.27875 0.28875 2.5575 0.5775 3.875 0.875 C4.95394531 1.11863281 4.95394531 1.11863281 6.0546875 1.3671875 C8 2 8 2 10 4 C8.5 5.125 8.5 5.125 6 6 C3.2226918 5.57598348 0.70360217 4.81108065 -2 4 C-1.34 2.68 -0.68 1.36 0 0 Z " fill="#C65828" transform="translate(327,185)"/>
<path d="M0 0 C-0.33 1.32 -0.66 2.64 -1 4 C-1.66 4 -2.32 4 -3 4 C-3 4.99 -3 5.98 -3 7 C-4.65 7.66 -6.3 8.32 -8 9 C-7.70100785 5.41209425 -7.23013399 4.21833224 -4.5625 1.6875 C-2 0 -2 0 0 0 Z " fill="#CA572C" transform="translate(138,417)"/>
<path d="M0 0 C2 1.3125 2 1.3125 4 3 C4 3.99 4 4.98 4 6 C5.65 6 7.3 6 9 6 C9 6.66 9 7.32 9 8 C-0.59453303 6.25740319 -0.59453303 6.25740319 -4 3 C-3.01 2.34 -2.02 1.68 -1 1 C-0.67 0.67 -0.34 0.34 0 0 Z " fill="#D99579" transform="translate(325,218)"/>
<path d="M0 0 C8.57142857 -0.28571429 8.57142857 -0.28571429 12 2 C12 2.66 12 3.32 12 4 C13.32 4.33 14.64 4.66 16 5 C14 6 14 6 10.7421875 5.00390625 C9.4502948 4.53110016 8.16131362 4.05028031 6.875 3.5625 C6.21628906 3.31951172 5.55757813 3.07652344 4.87890625 2.82617188 C3.25008662 2.22421679 1.62470425 1.61297588 0 1 C0 0.67 0 0.34 0 0 Z " fill="#D89B82" transform="translate(299,180)"/>
<path d="M0 0 C3.96 0 7.92 0 12 0 C12.33 1.65 12.66 3.3 13 5 C11.39402675 4.54803755 9.79027492 4.08817673 8.1875 3.625 C6.84751953 3.24214844 6.84751953 3.24214844 5.48046875 2.8515625 C3 2 3 2 0 0 Z " fill="#D6926E" transform="translate(334,226)"/>
<path d="M0 0 C8.57142857 -0.28571429 8.57142857 -0.28571429 12 2 C12 2.66 12 3.32 12 4 C13.65 4.33 15.3 4.66 17 5 C13.01754349 6.3274855 10.55210457 4.99907829 6.8125 3.5625 C5.83120117 3.19801758 5.83120117 3.19801758 4.83007812 2.82617188 C3.21696714 2.2256707 1.6080565 1.61390797 0 1 C0 0.67 0 0.34 0 0 Z " fill="#DBA387" transform="translate(307,151)"/>
<path d="M0 0 C0.75 1.5625 0.75 1.5625 1 4 C-0.02332869 6.54719859 -1.27272296 8.86333587 -3 11 C-3.99 11.33 -4.98 11.66 -6 12 C-4.81819916 6.97734643 -3.55007718 3.9050849 0 0 Z " fill="#CC6F4A" transform="translate(285,88)"/>
<path d="M0 0 C1.28497537 3.85492611 0.4052209 5.40346836 -0.9375 9.1875 C-1.31777344 10.27417969 -1.69804688 11.36085938 -2.08984375 12.48046875 C-2.39019531 13.31191406 -2.69054687 14.14335937 -3 15 C-3.33 15 -3.66 15 -4 15 C-4.16682272 10.07872966 -4.24828052 6.49656104 -2 2 C-1.34 2 -0.68 2 0 2 C0 1.34 0 0.68 0 0 Z " fill="#DB9F86" transform="translate(99,377)"/>
<path d="M0 0 C5.27749285 0.53851968 9.25645564 1.77343836 14 4 C14 4.33 14 4.66 14 5 C9.45194365 5.17835515 6.1205746 4.99785435 2 3 C2 2.34 2 1.68 2 1 C1.34 0.67 0.68 0.34 0 0 Z " fill="#D9977B" transform="translate(378,193)"/>
<path d="M0 0 C1.79379098 0.44994757 3.58498928 0.91024143 5.375 1.375 C6.37273437 1.63023437 7.37046875 1.88546875 8.3984375 2.1484375 C11 3 11 3 13 5 C9.5945335 6.1351555 8.68276913 5.84899821 5.375 4.75 C4.57835937 4.49734375 3.78171875 4.2446875 2.9609375 3.984375 C1 3 1 3 0 0 Z " fill="#D89B7C" transform="translate(371,158)"/>
<path d="M0 0 C0 0.99 0 1.98 0 3 C-6.96428571 6.34821429 -6.96428571 6.34821429 -11 5 C-9.54462432 4.16151196 -8.08559627 3.32936066 -6.625 2.5 C-5.81289062 2.0359375 -5.00078125 1.571875 -4.1640625 1.09375 C-2 0 -2 0 0 0 Z " fill="#D89677" transform="translate(222,366)"/>
<path d="M0 0 C-3.46747828 2.77398263 -7.06402511 4.95912413 -11 7 C-11.66 6.67 -12.32 6.34 -13 6 C-13 5.34 -13 4.68 -13 4 C-11.35 4 -9.7 4 -8 4 C-8.33 3.01 -8.66 2.02 -9 1 C-5.92677456 0.08941469 -3.19902639 -0.08886184 0 0 Z " fill="#D89779" transform="translate(261,363)"/>
<path d="M0 0 C10.16236162 0.84132841 10.16236162 0.84132841 14 3 C14.33 3.99 14.66 4.98 15 6 C10 4.33333333 5 2.66666667 0 1 C0 0.67 0 0.34 0 0 Z " fill="#DDA188" transform="translate(321,188)"/>
<path d="M0 0 C0 3.60573896 -0.81707462 4.41336566 -3 7.1875 C-3.556875 7.90292969 -4.11375 8.61835937 -4.6875 9.35546875 C-5.120625 9.89816406 -5.55375 10.44085938 -6 11 C-6.66 9.68 -7.32 8.36 -8 7 C-5.36 4.69 -2.72 2.38 0 0 Z " fill="#E0C2B7" transform="translate(325,27)"/>
<path d="M0 0 C0.8723412 2.99480917 1.10829766 5.63575911 1.0625 8.75 C1.05347656 9.54921875 1.04445313 10.3484375 1.03515625 11.171875 C1.01775391 12.07679688 1.01775391 12.07679688 1 13 C0.67 13 0.34 13 0 13 C-0.33 14.98 -0.66 16.96 -1 19 C-1.33 19 -1.66 19 -2 19 C-2.24991456 12.34949576 -1.73955334 6.43013467 0 0 Z " fill="#E3AA94" transform="translate(85,392)"/>
<path d="M0 0 C4.37081182 0.51421316 8.02704918 2.20827708 12 4 C12 4.66 12 5.32 12 6 C10.39402675 5.54803755 8.79027492 5.08817673 7.1875 4.625 C6.29417969 4.36976563 5.40085937 4.11453125 4.48046875 3.8515625 C2 3 2 3 -1 1 C-0.67 0.67 -0.34 0.34 0 0 Z " fill="#D69B7C" transform="translate(338,193)"/>
<path d="M0 0 C-0.61538462 6.52307692 -0.61538462 6.52307692 -2.5625 8.9375 C-3.036875 9.288125 -3.51125 9.63875 -4 10 C-4 8.02 -4 6.04 -4 4 C-4.66 3.67 -5.32 3.34 -6 3 C-2.25 0 -2.25 0 0 0 Z " fill="#D1886A" transform="translate(314,40)"/>
<path d="M0 0 C0.33 0 0.66 0 1 0 C2.33583899 4.84241633 3.25328119 8.93437617 3 14 C0.4517852 11.4517852 -0.12838054 9.48647782 -1 6 C-0.625 2.625 -0.625 2.625 0 0 Z " fill="#D7987C" transform="translate(92,471)"/>
<path d="M0 0 C-0.66498383 4.38889325 -2.18757677 7.9811485 -4 12 C-4.33 12 -4.66 12 -5 12 C-4.88648483 10.18674449 -4.75887039 8.37436643 -4.625 6.5625 C-4.55539063 5.55316406 -4.48578125 4.54382813 -4.4140625 3.50390625 C-4.27742188 2.67761719 -4.14078125 1.85132813 -4 1 C-2 0 -2 0 0 0 Z " fill="#D08B69" transform="translate(105,365)"/>
<path d="M0 0 C0.144375 0.61875 0.28875 1.2375 0.4375 1.875 C0.93152225 4.03258322 0.93152225 4.03258322 2 6 C-0.31 6.33 -2.62 6.66 -5 7 C-4.75 4.625 -4.75 4.625 -4 2 C-1.9375 0.6875 -1.9375 0.6875 0 0 Z " fill="#CA6F4D" transform="translate(306,209)"/>
<path d="M0 0 C-1.32 1.32 -2.64 2.64 -4 4 C-4 3.34 -4 2.68 -4 2 C-4.680625 2.33 -5.36125 2.66 -6.0625 3 C-9.50840238 4.17307315 -12.38397422 4.14180493 -16 4 C-16 3.67 -16 3.34 -16 3 C-14.02 3 -12.04 3 -10 3 C-10 2.34 -10 1.68 -10 1 C-8.71073008 0.63720544 -7.41846728 0.28503302 -6.125 -0.0625 C-5.40570313 -0.25972656 -4.68640625 -0.45695312 -3.9453125 -0.66015625 C-2 -1 -2 -1 0 0 Z " fill="#C26034" transform="translate(294,259)"/>
<path d="M0 0 C7.26153846 -0.61538462 7.26153846 -0.61538462 11 2.5 C11.66 3.325 12.32 4.15 13 5 C11.39402675 4.54803755 9.79027492 4.08817673 8.1875 3.625 C6.84751953 3.24214844 6.84751953 3.24214844 5.48046875 2.8515625 C3 2 3 2 0 0 Z " fill="#DDA88D" transform="translate(350,199)"/>
<path d="M0 0 C0.99 0.33 1.98 0.66 3 1 C3.33 2.98 3.66 4.96 4 7 C3.01 6.67 2.02 6.34 1 6 C0.67 6.66 0.34 7.32 0 8 C-0.66 7.01 -1.32 6.02 -2 5 C-1.34 5 -0.68 5 0 5 C-0.2784375 4.0409375 -0.2784375 4.0409375 -0.5625 3.0625 C-0.7790625 2.0415625 -0.7790625 2.0415625 -1 1 C-0.67 0.67 -0.34 0.34 0 0 Z " fill="#CF5F31" transform="translate(102,359)"/>
<path d="M0 0 C2.49310643 3.73965964 2.0603261 5.29070641 1.625 9.6875 C1.51414062 10.86699219 1.40328125 12.04648438 1.2890625 13.26171875 C1.19367188 14.16535156 1.09828125 15.06898437 1 16 C0.67 16 0.34 16 0 16 C0.01740234 15.11248047 0.01740234 15.11248047 0.03515625 14.20703125 C0.08366762 9.95882148 -0.11578549 6.16843985 -1 2 C-0.67 1.34 -0.34 0.68 0 0 Z " fill="#CF7F5D" transform="translate(292,85)"/>
<path d="M0 0 C0.99 0.495 0.99 0.495 2 1 C3.28317892 4.84953676 3.06643637 7.94738135 3 12 C0.05413171 7.58119757 -0.0985616 5.32232661 0 0 Z " fill="#CF8867" transform="translate(311,271)"/>
<path d="M0 0 C0.99 0.66 1.98 1.32 3 2 C-0.465 4.97 -0.465 4.97 -4 8 C-4.66 7.67 -5.32 7.34 -6 7 C-5.67 6.01 -5.34 5.02 -5 4 C-3.35 3.67 -1.7 3.34 0 3 C0 2.01 0 1.02 0 0 Z " fill="#DA9279" transform="translate(374,228)"/>
<path d="M0 0 C2.475 0.495 2.475 0.495 5 1 C5.33 2.65 5.66 4.3 6 6 C5.67 5.34 5.34 4.68 5 4 C4.34 4 3.68 4 3 4 C3 4.99 3 5.98 3 7 C2.01 7 1.02 7 0 7 C1 5 2 3 3 1 C2.01 0.67 1.02 0.34 0 0 Z " fill="#DC9D80" transform="translate(401,186)"/>
<path d="M0 0 C4.21912747 0.4794463 6.79663178 1.16625119 10 4 C8.375 4.6875 8.375 4.6875 6 5 C2.75 3.5625 2.75 3.5625 0 2 C0 1.34 0 0.68 0 0 Z " fill="#D9977C" transform="translate(306,166)"/>
<path d="M0 0 C0.66 0.99 1.32 1.98 2 3 C1.34 3 0.68 3 0 3 C0.0825 3.9075 0.165 4.815 0.25 5.75 C-0.05464439 9.71037702 -1.14911051 10.4184859 -4 13 C-3.52343588 11.20763933 -3.04366502 9.41613103 -2.5625 7.625 C-2.29566406 6.62726563 -2.02882813 5.62953125 -1.75390625 4.6015625 C-1 2 -1 2 0 0 Z " fill="#DEA58F" transform="translate(285,80)"/>
<path d="M0 0 C-0.639375 0.103125 -1.27875 0.20625 -1.9375 0.3125 C-2.618125 0.539375 -3.29875 0.76625 -4 1 C-4.33 1.99 -4.66 2.98 -5 4 C-7.31 4.33 -9.62 4.66 -12 5 C-3.89473684 -1.94736842 -3.89473684 -1.94736842 0 0 Z " fill="#DA9E84" transform="translate(192,384)"/>
<path d="M0 0 C-0.66 1.32 -1.32 2.64 -2 4 C-5 3 -5 3 -7 2 C-7 2.66 -7 3.32 -7 4 C-7.99 3.67 -8.98 3.34 -10 3 C-6.84439813 -0.15560187 -4.30999015 -1.43666338 0 0 Z " fill="#CF5728" transform="translate(223,370)"/>
<path d="M0 0 C-3.19990508 2.74277578 -6.00499382 4.6302836 -10 6 C-9.6875 4.125 -9.6875 4.125 -9 2 C-5.5647952 -0.29013653 -4.014669 -0.17842973 0 0 Z " fill="#D99578" transform="translate(166,306)"/>
<path d="M0 0 C0.66 0.33 1.32 0.66 2 1 C1.67 2.65 1.34 4.3 1 6 C-2 7 -2 7 -4.1875 6.0625 C-4.785625 5.711875 -5.38375 5.36125 -6 5 C-5.38125 4.9175 -4.7625 4.835 -4.125 4.75 C-1.81562433 4.18741541 -1.81562433 4.18741541 -0.75 1.9375 C-0.5025 1.298125 -0.255 0.65875 0 0 Z " fill="#DA9676" transform="translate(398,194)"/>
<path d="M0 0 C1.41782145 0.06059066 2.83444466 0.14954123 4.25 0.25 C5.03890625 0.29640625 5.8278125 0.3428125 6.640625 0.390625 C9.67898672 1.17536743 10.96841312 2.67019853 13 5 C11.20620902 4.55005243 9.41501072 4.08975857 7.625 3.625 C6.62726563 3.36976563 5.62953125 3.11453125 4.6015625 2.8515625 C2 2 2 2 0 0 Z " fill="#DFAE95" transform="translate(388,181)"/>
<path d="M0 0 C1.60080151 4.00200378 0.29279692 7.04556236 -1 11 C-3 8 -3 8 -2.75 5.5 C-2 3 -2 3 0 0 Z " fill="#E2CEC3" transform="translate(426,154)"/>
<path d="M0 0 C0 3.19610552 -0.54671542 4.41717626 -2 7.1875 C-2.37125 7.90292969 -2.7425 8.61835937 -3.125 9.35546875 C-3.41375 9.89816406 -3.7025 10.44085938 -4 11 C-4.33 11 -4.66 11 -5 11 C-4.50769231 4.6 -4.50769231 4.6 -1.9375 1.5625 C-0.9784375 0.7890625 -0.9784375 0.7890625 0 0 Z " fill="#DDA388" transform="translate(309,50)"/>
<path d="M0 0 C0.99 0.33 1.98 0.66 3 1 C2.6875 2.9375 2.6875 2.9375 2 5 C1.01 5.33 0.02 5.66 -1 6 C-1.33 4.35 -1.66 2.7 -2 1 C-1.34 0.67 -0.68 0.34 0 0 Z " fill="#CC5727" transform="translate(113,436)"/>
<path d="M0 0 C1.98 0 3.96 0 6 0 C6 1.65 6 3.3 6 5 C4 4.33333333 2 3.66666667 0 3 C0 2.01 0 1.02 0 0 Z " fill="#CE5627" transform="translate(202,378)"/>
<path d="M0 0 C0.66 0 1.32 0 2 0 C2.3125 2.1875 2.3125 2.1875 2 5 C-0.5 7.8125 -0.5 7.8125 -3 10 C-2.01 6.7 -1.02 3.4 0 0 Z " fill="#D49274" transform="translate(95,357)"/>
<path d="M0 0 C2.0625 0.4375 2.0625 0.4375 4 1 C1.93243723 3.7972908 0.85559629 4.02692273 -2.6875 4.6875 C-3.780625 4.790625 -4.87375 4.89375 -6 5 C-5.195625 4.360625 -4.39125 3.72125 -3.5625 3.0625 C-1.7249496 1.59396498 -1.7249496 1.59396498 0 0 Z " fill="#CF8868" transform="translate(274,337)"/>
<path d="M0 0 C0.66 0.33 1.32 0.66 2 1 C-0.46153846 5.8 -0.46153846 5.8 -3.1875 6.8125 C-3.785625 6.874375 -4.38375 6.93625 -5 7 C-2.25 1.125 -2.25 1.125 0 0 Z " fill="#D17B5B" transform="translate(148,295)"/>
<path d="M0 0 C0 3 0 3 -2.5 5.6875 C-3.325 6.450625 -4.15 7.21375 -5 8 C-5 6.02 -5 4.04 -5 2 C-3.35 1.34 -1.7 0.68 0 0 Z " fill="#DA987C" transform="translate(114,454)"/>
<path d="M0 0 C0.66 0.33 1.32 0.66 2 1 C0.35 2.98 -1.3 4.96 -3 7 C-4.32 6.67 -5.64 6.34 -7 6 C-4.69 4.02 -2.38 2.04 0 0 Z " fill="#D9A183" transform="translate(123,424)"/>
<path d="M0 0 C1.65 0 3.3 0 5 0 C2.11912454 2.40072955 -0.56404834 4.47291037 -4 6 C-3.67 4.68 -3.34 3.36 -3 2 C-2.01 2 -1.02 2 0 2 C0 1.34 0 0.68 0 0 Z " fill="#DC9C82" transform="translate(145,424)"/>
<path d="M0 0 C0 0.99 0 1.98 0 3 C-6.625 6 -6.625 6 -10 6 C-2.6 0 -2.6 0 0 0 Z " fill="#E0A68E" transform="translate(146,409)"/>
<path d="M0 0 C0 0.99 0 1.98 0 3 C-1.32 3 -2.64 3 -4 3 C-4.33 3.66 -4.66 4.32 -5 5 C-7.5625 5.625 -7.5625 5.625 -10 6 C-2.6 0 -2.6 0 0 0 Z " fill="#DA9D7F" transform="translate(202,377)"/>
<path d="M0 0 C0.625 1.8125 0.625 1.8125 1 4 C0.01 5.485 0.01 5.485 -1 7 C-1.66 7 -2.32 7 -3 7 C-3 7.99 -3 8.98 -3 10 C-3.66 10 -4.32 10 -5 10 C-3.66511872 6.40608886 -2.03977277 3.24509304 0 0 Z " fill="#D8997C" transform="translate(109,331)"/>
<path d="M0 0 C2.97 0 5.94 0 9 0 C7.02 0.99 7.02 0.99 5 2 C4.01 2.66 3.02 3.32 2 4 C-0.6875 4.125 -0.6875 4.125 -3 4 C-1.68 3.67 -0.36 3.34 1 3 C0.67 2.01 0.34 1.02 0 0 Z " fill="#D27B5A" transform="translate(231,279)"/>
<path d="M0 0 C-0.33 0.99 -0.66 1.98 -1 3 C-0.01 3.33 0.98 3.66 2 4 C-4.15234375 3.4140625 -4.15234375 3.4140625 -6 3 C-6.33 2.34 -6.66 1.68 -7 1 C-4.53721199 -0.231394 -2.7204945 -0.07159196 0 0 Z " fill="#C25D35" transform="translate(394,178)"/>
<path d="M0 0 C0 3.75366417 -1.11420063 5.78715662 -3 9 C-3.99 9.33 -4.98 9.66 -6 10 C-4.6302836 6.00499382 -2.74277578 3.19990508 0 0 Z " fill="#E1A78D" transform="translate(303,49)"/>
<path d="M0 0 C0.99 0.33 1.98 0.66 3 1 C-0.465 3.97 -0.465 3.97 -4 7 C-4.33 6.01 -4.66 5.02 -5 4 C-4.01 4 -3.02 4 -2 4 C-2 3.01 -2 2.02 -2 1 C-1.34 0.67 -0.68 0.34 0 0 Z " fill="#D4997A" transform="translate(130,436)"/>
<path d="M0 0 C0.66 0.33 1.32 0.66 2 1 C1.6875 2.9375 1.6875 2.9375 1 5 C0.01 5.33 -0.98 5.66 -2 6 C-2 5.34 -2 4.68 -2 4 C-2.66 3.67 -3.32 3.34 -4 3 C-2.68 2.01 -1.36 1.02 0 0 Z " fill="#D78969" transform="translate(266,342)"/>
<path d="M0 0 C0.66 0 1.32 0 2 0 C1.67 1.32 1.34 2.64 1 4 C0.34 4 -0.32 4 -1 4 C-1 4.66 -1 5.32 -1 6 C-1.99 6 -2.98 6 -4 6 C-2.84826645 3.53199953 -1.95216435 1.95216435 0 0 Z " fill="#D48E73" transform="translate(292,320)"/>
<path d="M0 0 C4.455 0.99 4.455 0.99 9 2 C8.67 2.99 8.34 3.98 8 5 C7.4225 4.67 6.845 4.34 6.25 4 C3.80116138 2.72924102 3.80116138 2.72924102 0 3 C0 2.01 0 1.02 0 0 Z " fill="#D89D7E" transform="translate(290,128)"/>
<path d="M0 0 C0.66 0 1.32 0 2 0 C1.4409112 3.24271506 0.5867822 4.93057424 -2 7 C-2.66 7 -3.32 7 -4 7 C-3.67 5.68 -3.34 4.36 -3 3 C-2.01 3 -1.02 3 0 3 C0 2.01 0 1.02 0 0 Z " fill="#CC7C54" transform="translate(106,338)"/>
<path d="M0 0 C1.32 0.33 2.64 0.66 4 1 C1.69 2.65 -0.62 4.3 -3 6 C-3.33 4.68 -3.66 3.36 -4 2 C-2.68 2 -1.36 2 0 2 C0 1.34 0 0.68 0 0 Z " fill="#D99D7E" transform="translate(140,321)"/>
<path d="M0 0 C0.66 0 1.32 0 2 0 C1.25 6.625 1.25 6.625 -1 10 C-1.125 3.375 -1.125 3.375 0 0 Z " fill="#D7977A" transform="translate(311,305)"/>
<path d="M0 0 C0.66 0.33 1.32 0.66 2 1 C-0.12055614 4.1808342 -1.63050557 5.31525278 -5 7 C-5.66 6.67 -6.32 6.34 -7 6 C-4.69 4.02 -2.38 2.04 0 0 Z " fill="#DFA690" transform="translate(143,298)"/>
<path d="M0 0 C3.8063457 0.67170806 7.35206816 1.72746564 11 3 C6.99799622 4.60080151 3.95443764 3.29279692 0 2 C0 1.34 0 0.68 0 0 Z " fill="#DEA692" transform="translate(303,198)"/>
<path d="M0 0 C1.32 0 2.64 0 4 0 C4 0.66 4 1.32 4 2 C3.01 2 2.02 2 1 2 C1 3.32 1 4.64 1 6 C0.34 6 -0.32 6 -1 6 C-1.042721 4.33388095 -1.04063832 2.66617115 -1 1 C-0.67 0.67 -0.34 0.34 0 0 Z " fill="#CA6D3F" transform="translate(267,354)"/>
<path d="M0 0 C0.66 0 1.32 0 2 0 C2.33 1.98 2.66 3.96 3 6 C1.68 5.34 0.36 4.68 -1 4 C-0.67 2.68 -0.34 1.36 0 0 Z " fill="#C45926" transform="translate(154,305)"/>
<path d="M0 0 C2.31 0 4.62 0 7 0 C4.01353231 1.99097846 1.40312738 2.94124926 -2 4 C-1.34 2.68 -0.68 1.36 0 0 Z " fill="#D99475" transform="translate(177,297)"/>
<path d="M0 0 C2.31 0.66 4.62 1.32 7 2 C5.35 3.32 3.7 4.64 2 6 C1.34 5.67 0.68 5.34 0 5 C0 3.35 0 1.7 0 0 Z " fill="#DC977E" transform="translate(318,256)"/>
<path d="M0 0 C-0.33 1.32 -0.66 2.64 -1 4 C-2.65 4 -4.3 4 -6 4 C-5.67 3.01 -5.34 2.02 -5 1 C-2 0 -2 0 0 0 Z " fill="#D2825E" transform="translate(330,239)"/>
<path d="M0 0 C2.625 1.375 2.625 1.375 5 3 C5 3.33 5 3.66 5 4 C3.02 4 1.04 4 -1 4 C-1.33 3.01 -1.66 2.02 -2 1 C-1.34 0.67 -0.68 0.34 0 0 Z " fill="#CB7A58" transform="translate(308,240)"/>
<path d="M0 0 C5.75 0.75 5.75 0.75 8 3 C5.03 2.67 2.06 2.34 -1 2 C-0.67 1.34 -0.34 0.68 0 0 Z " fill="#D4967B" transform="translate(324,206)"/>
<path d="M0 0 C5.95703125 -0.29296875 5.95703125 -0.29296875 8 0 C8.99 0.99 9.98 1.98 11 3 C7.37 2.67 3.74 2.34 0 2 C0 1.34 0 0.68 0 0 Z " fill="#C1633E" transform="translate(292,177)"/>
<path d="M0 0 C0.66 0 1.32 0 2 0 C2 1.98 2 3.96 2 6 C1.01 6.33 0.02 6.66 -1 7 C-0.67 4.69 -0.34 2.38 0 0 Z " fill="#CD8161" transform="translate(287,75)"/>
<path d="M0 0 C0.75 1.75 0.75 1.75 1 4 C-0.9375 6.25 -0.9375 6.25 -3 8 C-3.33 7.34 -3.66 6.68 -4 6 C-2.68 4.02 -1.36 2.04 0 0 Z " fill="#D9997C" transform="translate(296,59)"/>
</svg>
